<svg xmlns="http://www.w3.org/2000/svg" width="900" height="520" viewBox="0 0 900 520" role="img" aria-labelledby="title desc">
<title id="title">Einfallswinkel der Sonnenstrahlen</title><desc id="desc">Klare schulische Physikgrafik: Einfallswinkel der Sonnenstrahlen</desc>
<defs>
 <marker id="arrow" markerWidth="8" markerHeight="8" refX="7" refY="4" orient="auto" markerUnits="strokeWidth"><path d="M0,0 L8,4 L0,8 z" fill="context-stroke"/></marker>
 <filter id="shadow" x="-20%" y="-20%" width="140%" height="140%"><feDropShadow dx="0" dy="8" stdDeviation="8" flood-color="#102a43" flood-opacity=".12"/></filter>
 <linearGradient id="rainbow" x1="0" x2="1"><stop offset="0" stop-color="#6d28d9"/><stop offset=".18" stop-color="#2563eb"/><stop offset=".35" stop-color="#0ea5e9"/><stop offset=".52" stop-color="#22c55e"/><stop offset=".68" stop-color="#facc15"/><stop offset=".83" stop-color="#f97316"/><stop offset="1" stop-color="#ef4444"/></linearGradient>
 <radialGradient id="sun"><stop offset="0" stop-color="#fff7a8"/><stop offset=".7" stop-color="#ffd34e"/><stop offset="1" stop-color="#f39a24"/></radialGradient>
</defs>
<rect width="900" height="520" rx="28" fill="#f3f6ff"/>
<rect x="18" y="18" width="864" height="484" rx="24" fill="white" stroke="#7257d5" stroke-width="3" opacity=".98"/>
<rect x="42" y="38" width="816" height="58" rx="18" fill="#f0eeff" opacity="1"/><text x="66" y="68" font-family="Arial,Helvetica,sans-serif" font-size="30" font-weight="800" fill="#0a2540" text-anchor="start" dominant-baseline="middle">Sonnenstrahlen: steil oder flach?</text><line x1="42" y1="112" x2="858" y2="112" stroke="#7257d5" stroke-width="4" stroke-linecap="round" opacity="1"/><rect x="60" y="150" width="370" height="285" rx="18" fill="#f8fbfd" stroke="#cbd8e1" stroke-width="2" opacity="1"/><line x1="105" y1="370" x2="385" y2="370" stroke="#0a2540" stroke-width="5" stroke-linecap="round" opacity="1"/><line x1="210" y1="180" x2="210" y2="350" stroke="#f4c95d" stroke-width="5" stroke-linecap="round" marker-end="url(#arrow)" opacity="1"/><line x1="245" y1="180" x2="245" y2="350" stroke="#f4c95d" stroke-width="5" stroke-linecap="round" marker-end="url(#arrow)" opacity="1"/><line x1="280" y1="180" x2="280" y2="350" stroke="#f4c95d" stroke-width="5" stroke-linecap="round" marker-end="url(#arrow)" opacity="1"/><line x1="315" y1="180" x2="315" y2="350" stroke="#f4c95d" stroke-width="5" stroke-linecap="round" marker-end="url(#arrow)" opacity="1"/><rect x="195" y="375" width="140" height="18" rx="4" fill="#f59e42" opacity="1"/><text x="245" y="460" font-family="Arial,Helvetica,sans-serif" font-size="22" font-weight="850" fill="#0a2540" text-anchor="middle" dominant-baseline="middle">Sommer</text><rect x="470" y="150" width="370" height="285" rx="18" fill="#f8fbfd" stroke="#cbd8e1" stroke-width="2" opacity="1"/><line x1="515" y1="370" x2="795" y2="370" stroke="#0a2540" stroke-width="5" stroke-linecap="round" opacity="1"/><line x1="540" y1="210" x2="750" y2="350.0" stroke="#f4c95d" stroke-width="5" stroke-linecap="round" marker-end="url(#arrow)" opacity="1"/><line x1="540" y1="232" x2="750" y2="354.4" stroke="#f4c95d" stroke-width="5" stroke-linecap="round" marker-end="url(#arrow)" opacity="1"/><line x1="540" y1="254" x2="750" y2="358.8" stroke="#f4c95d" stroke-width="5" stroke-linecap="round" marker-end="url(#arrow)" opacity="1"/><line x1="540" y1="276" x2="750" y2="363.2" stroke="#f4c95d" stroke-width="5" stroke-linecap="round" marker-end="url(#arrow)" opacity="1"/><rect x="555" y="375" width="235" height="18" rx="4" fill="#f59e42" opacity="1"/><text x="655" y="460" font-family="Arial,Helvetica,sans-serif" font-size="22" font-weight="850" fill="#0a2540" text-anchor="middle" dominant-baseline="middle">Winter</text>
</svg>