<svg xmlns="http://www.w3.org/2000/svg" width="900" height="520" viewBox="0 0 900 520" role="img" aria-labelledby="title desc">
<title id="title">Geschwindigkeitsprofile</title><desc id="desc">Klare schulische Physikgrafik: Geschwindigkeitsprofile</desc>
<defs>
 <marker id="arrow" markerWidth="8" markerHeight="8" refX="7" refY="4" orient="auto" markerUnits="strokeWidth"><path d="M0,0 L8,4 L0,8 z" fill="context-stroke"/></marker>
 <filter id="shadow" x="-20%" y="-20%" width="140%" height="140%"><feDropShadow dx="0" dy="8" stdDeviation="8" flood-color="#102a43" flood-opacity=".12"/></filter>
 <linearGradient id="rainbow" x1="0" x2="1"><stop offset="0" stop-color="#6d28d9"/><stop offset=".18" stop-color="#2563eb"/><stop offset=".35" stop-color="#0ea5e9"/><stop offset=".52" stop-color="#22c55e"/><stop offset=".68" stop-color="#facc15"/><stop offset=".83" stop-color="#f97316"/><stop offset="1" stop-color="#ef4444"/></linearGradient>
 <radialGradient id="sun"><stop offset="0" stop-color="#fff7a8"/><stop offset=".7" stop-color="#ffd34e"/><stop offset="1" stop-color="#f39a24"/></radialGradient>
</defs>
<rect width="900" height="520" rx="28" fill="#f8fbfa"/>
<rect x="18" y="18" width="864" height="484" rx="24" fill="white" stroke="#f59e42" stroke-width="3" opacity=".98"/>
<rect x="42" y="38" width="816" height="58" rx="18" fill="#fff4e8" opacity="1"/><text x="66" y="68" font-family="Arial,Helvetica,sans-serif" font-size="30" font-weight="800" fill="#0a2540" text-anchor="start" dominant-baseline="middle">Gleicher Durchschnitt – anderer Verlauf</text><line x1="42" y1="112" x2="858" y2="112" stroke="#f59e42" stroke-width="4" stroke-linecap="round" opacity="1"/><rect x="70" y="145" width="355" height="300" rx="18" fill="#f8fbfd" stroke="#cbd8e1" stroke-width="2" opacity="1"/><line x1="125" y1="390" x2="380" y2="390" stroke="#0a2540" stroke-width="3" stroke-linecap="round" opacity="1"/><line x1="125" y1="390" x2="125" y2="190" stroke="#0a2540" stroke-width="3" stroke-linecap="round" opacity="1"/><path d="M 125 390.0 L 185 310.0 L 245 310.0 L 305 310.0 L 365 390.0" fill="none" stroke="#f59e42" stroke-width="5" stroke-linecap="round" stroke-linejoin="round" opacity="1"/><text x="248" y="465" font-family="Arial,Helvetica,sans-serif" font-size="22" font-weight="850" fill="#0a2540" text-anchor="middle" dominant-baseline="middle">Fahrt A</text><rect x="475" y="145" width="355" height="300" rx="18" fill="#f8fbfd" stroke="#cbd8e1" stroke-width="2" opacity="1"/><line x1="530" y1="390" x2="785" y2="390" stroke="#0a2540" stroke-width="3" stroke-linecap="round" opacity="1"/><line x1="530" y1="390" x2="530" y2="190" stroke="#0a2540" stroke-width="3" stroke-linecap="round" opacity="1"/><path d="M 530 390.0 L 590 230.0 L 650 390.0 L 710 230.0 L 770 390.0" fill="none" stroke="#f59e42" stroke-width="5" stroke-linecap="round" stroke-linejoin="round" opacity="1"/><text x="653" y="465" font-family="Arial,Helvetica,sans-serif" font-size="22" font-weight="850" fill="#0a2540" text-anchor="middle" dominant-baseline="middle">Fahrt B</text>
</svg>