<svg xmlns="http://www.w3.org/2000/svg" viewBox="0 0 1200 620" role="img" aria-label="Kräfte, Maschinen und Energie im Alltag">
<defs>
  <linearGradient id="bg" x1="0" y1="0" x2="1" y2="1"><stop offset="0" stop-color="#f7fbff"/><stop offset="1" stop-color="#eef7f4"/></linearGradient>
  <filter id="shadow" x="-20%" y="-20%" width="140%" height="140%"><feDropShadow dx="0" dy="8" stdDeviation="8" flood-color="#0f172a" flood-opacity="0.18"/></filter>
  <marker id="arrow" markerWidth="14" markerHeight="14" refX="10" refY="5" orient="auto" markerUnits="strokeWidth"><path d="M0,0 L10,5 L0,10 Z" fill="#f59e0b"/></marker>
  <marker id="arrowB" markerWidth="14" markerHeight="14" refX="10" refY="5" orient="auto" markerUnits="strokeWidth"><path d="M0,0 L10,5 L0,10 Z" fill="#167a65"/></marker>
</defs>
<rect width="1200" height="620" rx="34" fill="url(#bg)"/>
<rect x="35" y="30" width="1130" height="74" rx="22" fill="#167a65" opacity="0.96"/>
<text x="65" y="78" font-family="Arial, Helvetica, sans-serif" font-size="36" font-weight="700" fill="white">Kräfte, Maschinen und Energie im Alltag</text>

<g filter="url(#shadow)">
<rect x="70" y="155" width="290" height="330" rx="28" fill="white"/>
<rect x="455" y="155" width="290" height="330" rx="28" fill="white"/>
<rect x="840" y="155" width="290" height="330" rx="28" fill="white"/>
</g>
<circle cx="190" cy="250" r="45" fill="#fcd34d"/><rect x="155" y="295" width="70" height="115" rx="16" fill="#60a5fa"/><line x1="155" y1="340" x2="95" y2="390" stroke="#334155" stroke-width="18" stroke-linecap="round"/><line x1="225" y1="340" x2="300" y2="390" stroke="#334155" stroke-width="18" stroke-linecap="round"/><rect x="300" y="345" width="70" height="70" rx="12" fill="#c084fc"/>
<line x1="95" y1="395" x2="305" y2="395" stroke="#f59e0b" stroke-width="12" marker-end="url(#arrow)"/>
<text x="105" y="455" font-size="25" font-family="Arial" fill="#0f172a" font-weight="700">Ziehen: Kraft wirkt</text>
<polygon points="500,430 720,430 720,350 555,350" fill="#dbeafe" stroke="#334155" stroke-width="5"/><circle cx="570" cy="430" r="26" fill="#1f2937"/><circle cx="675" cy="430" r="26" fill="#1f2937"/><line x1="515" y1="345" x2="700" y2="195" stroke="#f59e0b" stroke-width="10" marker-end="url(#arrow)"/>
<text x="490" y="455" font-size="25" font-family="Arial" fill="#0f172a" font-weight="700">Rampe: weniger Kraft</text>
<rect x="890" y="330" width="170" height="35" rx="8" fill="#6b7280"/><circle cx="930" cy="330" r="28" fill="#f59e0b"/><circle cx="1020" cy="330" r="28" fill="#f59e0b"/><path d="M900 300 C935 230, 1000 230, 1045 300" fill="none" stroke="#334155" stroke-width="18" stroke-linecap="round"/><line x1="970" y1="300" x2="970" y2="180" stroke="#167a65" stroke-width="10" marker-end="url(#arrowB)"/>
<text x="885" y="455" font-size="25" font-family="Arial" fill="#0f172a" font-weight="700">Fahrrad: Energie wandelt sich</text>

</svg>