<svg xmlns="http://www.w3.org/2000/svg" width="900" height="520" viewBox="0 0 900 520" role="img" aria-labelledby="title desc">
<title id="title">Aufbau des Auges</title><desc id="desc">Klare schulische Physikgrafik: Aufbau des Auges</desc>
<defs>
 <marker id="arrow" markerWidth="8" markerHeight="8" refX="7" refY="4" orient="auto" markerUnits="strokeWidth"><path d="M0,0 L8,4 L0,8 z" fill="context-stroke"/></marker>
 <filter id="shadow" x="-20%" y="-20%" width="140%" height="140%"><feDropShadow dx="0" dy="8" stdDeviation="8" flood-color="#102a43" flood-opacity=".12"/></filter>
 <linearGradient id="rainbow" x1="0" x2="1"><stop offset="0" stop-color="#6d28d9"/><stop offset=".18" stop-color="#2563eb"/><stop offset=".35" stop-color="#0ea5e9"/><stop offset=".52" stop-color="#22c55e"/><stop offset=".68" stop-color="#facc15"/><stop offset=".83" stop-color="#f97316"/><stop offset="1" stop-color="#ef4444"/></linearGradient>
 <radialGradient id="sun"><stop offset="0" stop-color="#fff7a8"/><stop offset=".7" stop-color="#ffd34e"/><stop offset="1" stop-color="#f39a24"/></radialGradient>
</defs>
<rect width="900" height="520" rx="28" fill="#f7fbfd"/>
<rect x="18" y="18" width="864" height="484" rx="24" fill="white" stroke="#22c7d6" stroke-width="3" opacity=".98"/>
<rect x="42" y="38" width="816" height="58" rx="18" fill="#eef7fa" opacity="1"/><text x="66" y="68" font-family="Arial,Helvetica,sans-serif" font-size="30" font-weight="800" fill="#0a2540" text-anchor="start" dominant-baseline="middle">Das Auge als optisches System</text><line x1="42" y1="112" x2="858" y2="112" stroke="#22c7d6" stroke-width="4" stroke-linecap="round" opacity="1"/><path d="M 210 285 C 300 120 640 110 735 285 C 640 450 300 440 210 285 Z" fill="#edf6fa" stroke="#0a2540" stroke-width="4" stroke-linecap="round" stroke-linejoin="round" opacity="1"/><ellipse cx="335" cy="285" rx="35" ry="95" fill="#dff4fa" stroke="#2f80ed" stroke-width="4" opacity="1"/><circle cx="270" cy="285" r="45" fill="#0a2540" opacity="1"/><circle cx="270" cy="285" r="18" fill="#111827" opacity="1"/><line x1="680" y1="180" x2="680" y2="390" stroke="#ef5b5b" stroke-width="8" stroke-linecap="round" opacity="1"/><line x1="95" y1="200" x2="300" y2="260" stroke="#f4c95d" stroke-width="4" stroke-linecap="round" opacity="1"/><line x1="300" y1="260" x2="680" y2="310" stroke="#f4c95d" stroke-width="4" stroke-linecap="round" opacity="1"/><line x1="95" y1="360" x2="300" y2="310" stroke="#22c7d6" stroke-width="4" stroke-linecap="round" opacity="1"/><line x1="300" y1="310" x2="680" y2="260" stroke="#22c7d6" stroke-width="4" stroke-linecap="round" opacity="1"/><text x="220" y="150" font-family="Arial,Helvetica,sans-serif" font-size="18" font-weight="700" fill="#0a2540" text-anchor="middle" dominant-baseline="middle">Hornhaut</text><text x="335" y="405" font-family="Arial,Helvetica,sans-serif" font-size="18" font-weight="700" fill="#0a2540" text-anchor="middle" dominant-baseline="middle">Linse</text><text x="720" y="190" font-family="Arial,Helvetica,sans-serif" font-size="18" font-weight="700" fill="#0a2540" text-anchor="middle" dominant-baseline="middle">Netzhaut</text><text x="755" y="350" font-family="Arial,Helvetica,sans-serif" font-size="18" font-weight="700" fill="#0a2540" text-anchor="middle" dominant-baseline="middle">Sehnerv</text>
</svg>