<svg xmlns="http://www.w3.org/2000/svg" width="900" height="520" viewBox="0 0 900 520" role="img" aria-labelledby="title desc">
<title id="title">Kurzsichtigkeit und Weitsichtigkeit</title><desc id="desc">Klare schulische Physikgrafik: Kurzsichtigkeit und Weitsichtigkeit</desc>
<defs>
 <marker id="arrow" markerWidth="8" markerHeight="8" refX="7" refY="4" orient="auto" markerUnits="strokeWidth"><path d="M0,0 L8,4 L0,8 z" fill="context-stroke"/></marker>
 <filter id="shadow" x="-20%" y="-20%" width="140%" height="140%"><feDropShadow dx="0" dy="8" stdDeviation="8" flood-color="#102a43" flood-opacity=".12"/></filter>
 <linearGradient id="rainbow" x1="0" x2="1"><stop offset="0" stop-color="#6d28d9"/><stop offset=".18" stop-color="#2563eb"/><stop offset=".35" stop-color="#0ea5e9"/><stop offset=".52" stop-color="#22c55e"/><stop offset=".68" stop-color="#facc15"/><stop offset=".83" stop-color="#f97316"/><stop offset="1" stop-color="#ef4444"/></linearGradient>
 <radialGradient id="sun"><stop offset="0" stop-color="#fff7a8"/><stop offset=".7" stop-color="#ffd34e"/><stop offset="1" stop-color="#f39a24"/></radialGradient>
</defs>
<rect width="900" height="520" rx="28" fill="#f7fbfd"/>
<rect x="18" y="18" width="864" height="484" rx="24" fill="white" stroke="#22c7d6" stroke-width="3" opacity=".98"/>
<rect x="42" y="38" width="816" height="58" rx="18" fill="#eef7fa" opacity="1"/><text x="66" y="68" font-family="Arial,Helvetica,sans-serif" font-size="30" font-weight="800" fill="#0a2540" text-anchor="start" dominant-baseline="middle">Fehlsichtigkeit und Korrektur</text><line x1="42" y1="112" x2="858" y2="112" stroke="#22c7d6" stroke-width="4" stroke-linecap="round" opacity="1"/><rect x="70" y="150" width="345" height="285" rx="18" fill="#f8fbfd" stroke="#cbd8e1" stroke-width="2" opacity="1"/><ellipse cx="240" cy="285" rx="135" ry="95" fill="#edf6fa" stroke="#0a2540" stroke-width="3" opacity="1"/><ellipse cx="175" cy="285" rx="18" ry="60" fill="#dff4fa" stroke="#2f80ed" stroke-width="3" opacity="1"/><line x1="340" y1="205" x2="340" y2="365" stroke="#ef5b5b" stroke-width="6" stroke-linecap="round" opacity="1"/><line x1="80" y1="235" x2="175" y2="265" stroke="#f4c95d" stroke-width="4" stroke-linecap="round" opacity="1"/><line x1="175" y1="265" x2="300" y2="285" stroke="#f4c95d" stroke-width="4" stroke-linecap="round" opacity="1"/><line x1="80" y1="335" x2="175" y2="305" stroke="#22c7d6" stroke-width="4" stroke-linecap="round" opacity="1"/><line x1="175" y1="305" x2="300" y2="285" stroke="#22c7d6" stroke-width="4" stroke-linecap="round" opacity="1"/><text x="242" y="465" font-family="Arial,Helvetica,sans-serif" font-size="21" font-weight="800" fill="#0a2540" text-anchor="middle" dominant-baseline="middle">Kurzsichtigkeit</text><text x="242" y="185" font-family="Arial,Helvetica,sans-serif" font-size="17" font-weight="700" fill="#2fbf71" text-anchor="middle" dominant-baseline="middle">Zerstreuungslinse</text><rect x="485" y="150" width="345" height="285" rx="18" fill="#f8fbfd" stroke="#cbd8e1" stroke-width="2" opacity="1"/><ellipse cx="655" cy="285" rx="135" ry="95" fill="#edf6fa" stroke="#0a2540" stroke-width="3" opacity="1"/><ellipse cx="590" cy="285" rx="18" ry="60" fill="#dff4fa" stroke="#2f80ed" stroke-width="3" opacity="1"/><line x1="755" y1="205" x2="755" y2="365" stroke="#ef5b5b" stroke-width="6" stroke-linecap="round" opacity="1"/><line x1="495" y1="235" x2="590" y2="265" stroke="#f4c95d" stroke-width="4" stroke-linecap="round" opacity="1"/><line x1="590" y1="265" x2="795" y2="285" stroke="#f4c95d" stroke-width="4" stroke-linecap="round" opacity="1"/><line x1="495" y1="335" x2="590" y2="305" stroke="#22c7d6" stroke-width="4" stroke-linecap="round" opacity="1"/><line x1="590" y1="305" x2="795" y2="285" stroke="#22c7d6" stroke-width="4" stroke-linecap="round" opacity="1"/><text x="657" y="465" font-family="Arial,Helvetica,sans-serif" font-size="21" font-weight="800" fill="#0a2540" text-anchor="middle" dominant-baseline="middle">Weitsichtigkeit</text><text x="657" y="185" font-family="Arial,Helvetica,sans-serif" font-size="17" font-weight="700" fill="#2fbf71" text-anchor="middle" dominant-baseline="middle">Sammellinse</text>
</svg>