<svg xmlns="http://www.w3.org/2000/svg" width="900" height="520" viewBox="0 0 900 520" role="img" aria-labelledby="title desc">
<title id="title">Lichtquellen und Spektren</title><desc id="desc">Klare schulische Physikgrafik: Lichtquellen und Spektren</desc>
<defs>
 <marker id="arrow" markerWidth="8" markerHeight="8" refX="7" refY="4" orient="auto" markerUnits="strokeWidth"><path d="M0,0 L8,4 L0,8 z" fill="context-stroke"/></marker>
 <filter id="shadow" x="-20%" y="-20%" width="140%" height="140%"><feDropShadow dx="0" dy="8" stdDeviation="8" flood-color="#102a43" flood-opacity=".12"/></filter>
 <linearGradient id="rainbow" x1="0" x2="1"><stop offset="0" stop-color="#6d28d9"/><stop offset=".18" stop-color="#2563eb"/><stop offset=".35" stop-color="#0ea5e9"/><stop offset=".52" stop-color="#22c55e"/><stop offset=".68" stop-color="#facc15"/><stop offset=".83" stop-color="#f97316"/><stop offset="1" stop-color="#ef4444"/></linearGradient>
 <radialGradient id="sun"><stop offset="0" stop-color="#fff7a8"/><stop offset=".7" stop-color="#ffd34e"/><stop offset="1" stop-color="#f39a24"/></radialGradient>
</defs>
<rect width="900" height="520" rx="28" fill="#f7fbfd"/>
<rect x="18" y="18" width="864" height="484" rx="24" fill="white" stroke="#22c7d6" stroke-width="3" opacity=".98"/>
<rect x="42" y="38" width="816" height="58" rx="18" fill="#eef7fa" opacity="1"/><text x="66" y="68" font-family="Arial,Helvetica,sans-serif" font-size="30" font-weight="800" fill="#0a2540" text-anchor="start" dominant-baseline="middle">Spektren verschiedener Lichtquellen</text><line x1="42" y1="112" x2="858" y2="112" stroke="#22c7d6" stroke-width="4" stroke-linecap="round" opacity="1"/><text x="170" y="194" font-family="Arial,Helvetica,sans-serif" font-size="21" font-weight="750" fill="#0a2540" text-anchor="end" dominant-baseline="middle">Glühlampe</text><rect x="200" y="160" width="610" height="68" rx="8" fill="url(#rainbow)" stroke="#cbd8e1" stroke-width="2" opacity="1"/><text x="170" y="299" font-family="Arial,Helvetica,sans-serif" font-size="21" font-weight="750" fill="#0a2540" text-anchor="end" dominant-baseline="middle">weiße LED</text><rect x="200" y="265" width="610" height="68" rx="8" fill="#14213d" stroke="#cbd8e1" stroke-width="2" opacity="1"/><rect x="300" y="273" width="65" height="52" rx="5" fill="#2563eb" opacity="0.8"/><rect x="510" y="273" width="105" height="52" rx="5" fill="#22c55e" opacity="0.8"/><rect x="690" y="273" width="150" height="52" rx="5" fill="#facc15" opacity="0.8"/><text x="170" y="404" font-family="Arial,Helvetica,sans-serif" font-size="21" font-weight="750" fill="#0a2540" text-anchor="end" dominant-baseline="middle">Leuchtstofflampe</text><rect x="200" y="370" width="610" height="68" rx="8" fill="#14213d" stroke="#cbd8e1" stroke-width="2" opacity="1"/><rect x="280" y="375" width="8" height="58" rx="2" fill="#7c3aed" opacity="1"/><rect x="405" y="375" width="8" height="58" rx="2" fill="#0ea5e9" opacity="1"/><rect x="560" y="375" width="8" height="58" rx="2" fill="#22c55e" opacity="1"/><rect x="720" y="375" width="8" height="58" rx="2" fill="#facc15" opacity="1"/><rect x="780" y="375" width="8" height="58" rx="2" fill="#ef4444" opacity="1"/>
</svg>