<svg xmlns="http://www.w3.org/2000/svg" viewBox="0 0 1200 620" role="img" aria-label="Arbeit, Energie und Leistung">
<defs>
  <linearGradient id="bg" x1="0" y1="0" x2="1" y2="1"><stop offset="0" stop-color="#f7fbff"/><stop offset="1" stop-color="#eef7f4"/></linearGradient>
  <filter id="shadow" x="-20%" y="-20%" width="140%" height="140%"><feDropShadow dx="0" dy="8" stdDeviation="8" flood-color="#0f172a" flood-opacity="0.18"/></filter>
  <marker id="arrow" markerWidth="14" markerHeight="14" refX="10" refY="5" orient="auto" markerUnits="strokeWidth"><path d="M0,0 L10,5 L0,10 Z" fill="#f59e0b"/></marker>
  <marker id="arrowB" markerWidth="14" markerHeight="14" refX="10" refY="5" orient="auto" markerUnits="strokeWidth"><path d="M0,0 L10,5 L0,10 Z" fill="#167a65"/></marker>
</defs>
<rect width="1200" height="620" rx="34" fill="url(#bg)"/>
<rect x="35" y="30" width="1130" height="74" rx="22" fill="#167a65" opacity="0.96"/>
<text x="65" y="78" font-family="Arial, Helvetica, sans-serif" font-size="36" font-weight="700" fill="white">Arbeit, Energie und Leistung</text>

<g filter="url(#shadow)"><rect x="85" y="145" width="1030" height="390" rx="28" fill="white"/></g>
<path d="M140 470 H310 V410 H480 V350 H650 V290 H820 V230 H990" fill="none" stroke="#64748b" stroke-width="30" stroke-linejoin="round"/>
<circle cx="310" cy="330" r="34" fill="#fcd34d"/><rect x="285" y="365" width="50" height="95" rx="12" fill="#60a5fa"/><line x1="310" y1="365" x2="385" y2="410" stroke="#334155" stroke-width="14" stroke-linecap="round"/><line x1="310" y1="410" x2="355" y2="460" stroke="#334155" stroke-width="14" stroke-linecap="round"/>
<circle cx="930" cy="345" r="80" fill="#fff7ed" stroke="#f59e0b" stroke-width="9"/><line x1="930" y1="345" x2="930" y2="285" stroke="#0f172a" stroke-width="8"/><line x1="930" y1="345" x2="975" y2="365" stroke="#0f172a" stroke-width="8"/>
<text x="130" y="520" font-family="Arial" font-size="25" fill="#334155">Gleiche Höhe, kürzere Zeit: größere Leistung P = E / t.</text>

</svg>