<svg xmlns="http://www.w3.org/2000/svg" width="900" height="520" viewBox="0 0 900 520" role="img" aria-labelledby="title desc">
<title id="title">Linsentypen</title><desc id="desc">Klare schulische Physikgrafik: Linsentypen</desc>
<defs>
 <marker id="arrow" markerWidth="8" markerHeight="8" refX="7" refY="4" orient="auto" markerUnits="strokeWidth"><path d="M0,0 L8,4 L0,8 z" fill="context-stroke"/></marker>
 <filter id="shadow" x="-20%" y="-20%" width="140%" height="140%"><feDropShadow dx="0" dy="8" stdDeviation="8" flood-color="#102a43" flood-opacity=".12"/></filter>
 <linearGradient id="rainbow" x1="0" x2="1"><stop offset="0" stop-color="#6d28d9"/><stop offset=".18" stop-color="#2563eb"/><stop offset=".35" stop-color="#0ea5e9"/><stop offset=".52" stop-color="#22c55e"/><stop offset=".68" stop-color="#facc15"/><stop offset=".83" stop-color="#f97316"/><stop offset="1" stop-color="#ef4444"/></linearGradient>
 <radialGradient id="sun"><stop offset="0" stop-color="#fff7a8"/><stop offset=".7" stop-color="#ffd34e"/><stop offset="1" stop-color="#f39a24"/></radialGradient>
</defs>
<rect width="900" height="520" rx="28" fill="#f7fbfd"/>
<rect x="18" y="18" width="864" height="484" rx="24" fill="white" stroke="#22c7d6" stroke-width="3" opacity=".98"/>
<rect x="42" y="38" width="816" height="58" rx="18" fill="#eef7fa" opacity="1"/><text x="66" y="68" font-family="Arial,Helvetica,sans-serif" font-size="30" font-weight="800" fill="#0a2540" text-anchor="start" dominant-baseline="middle">Sammellinse und Zerstreuungslinse</text><line x1="42" y1="112" x2="858" y2="112" stroke="#22c7d6" stroke-width="4" stroke-linecap="round" opacity="1"/><path d="M 232 150 Q 190 260 232 370 Q 330 260 288 150 Z" fill="#dff4fa" stroke="#2f80ed" stroke-width="4" stroke-linecap="round" stroke-linejoin="round" opacity="1"/><line x1="90" y1="205" x2="230" y2="205" stroke="#f4c95d" stroke-width="4" stroke-linecap="round" opacity="1"/><line x1="290" y1="205" x2="410" y2="260" stroke="#22c7d6" stroke-width="4" stroke-linecap="round" opacity="1"/><line x1="90" y1="260" x2="230" y2="260" stroke="#f4c95d" stroke-width="4" stroke-linecap="round" opacity="1"/><line x1="290" y1="260" x2="410" y2="260" stroke="#22c7d6" stroke-width="4" stroke-linecap="round" opacity="1"/><line x1="90" y1="315" x2="230" y2="315" stroke="#f4c95d" stroke-width="4" stroke-linecap="round" opacity="1"/><line x1="290" y1="315" x2="410" y2="260" stroke="#22c7d6" stroke-width="4" stroke-linecap="round" opacity="1"/><text x="260" y="445" font-family="Arial,Helvetica,sans-serif" font-size="22" font-weight="800" fill="#0a2540" text-anchor="middle" dominant-baseline="middle">Sammellinse</text><path d="M 585 150 Q 630 260 585 370 Q 650 260 695 150 Z" fill="#dff4fa" stroke="#2f80ed" stroke-width="4" stroke-linecap="round" stroke-linejoin="round" opacity="1"/><line x1="470" y1="205" x2="610" y2="205" stroke="#f4c95d" stroke-width="4" stroke-linecap="round" opacity="1"/><line x1="670" y1="205" x2="790" y2="161.0" stroke="#22c7d6" stroke-width="4" stroke-linecap="round" opacity="1"/><line x1="470" y1="260" x2="610" y2="260" stroke="#f4c95d" stroke-width="4" stroke-linecap="round" opacity="1"/><line x1="670" y1="260" x2="790" y2="260.0" stroke="#22c7d6" stroke-width="4" stroke-linecap="round" opacity="1"/><line x1="470" y1="315" x2="610" y2="315" stroke="#f4c95d" stroke-width="4" stroke-linecap="round" opacity="1"/><line x1="670" y1="315" x2="790" y2="359.0" stroke="#22c7d6" stroke-width="4" stroke-linecap="round" opacity="1"/><text x="640" y="445" font-family="Arial,Helvetica,sans-serif" font-size="22" font-weight="800" fill="#0a2540" text-anchor="middle" dominant-baseline="middle">Zerstreuungslinse</text>
</svg>