<svg xmlns="http://www.w3.org/2000/svg" width="900" height="520" viewBox="0 0 900 520" role="img" aria-labelledby="title desc">
<title id="title">Bewegungsarten im Stroboskopbild</title><desc id="desc">Klare schulische Physikgrafik: Bewegungsarten im Stroboskopbild</desc>
<defs>
 <marker id="arrow" markerWidth="8" markerHeight="8" refX="7" refY="4" orient="auto" markerUnits="strokeWidth"><path d="M0,0 L8,4 L0,8 z" fill="context-stroke"/></marker>
 <filter id="shadow" x="-20%" y="-20%" width="140%" height="140%"><feDropShadow dx="0" dy="8" stdDeviation="8" flood-color="#102a43" flood-opacity=".12"/></filter>
 <linearGradient id="rainbow" x1="0" x2="1"><stop offset="0" stop-color="#6d28d9"/><stop offset=".18" stop-color="#2563eb"/><stop offset=".35" stop-color="#0ea5e9"/><stop offset=".52" stop-color="#22c55e"/><stop offset=".68" stop-color="#facc15"/><stop offset=".83" stop-color="#f97316"/><stop offset="1" stop-color="#ef4444"/></linearGradient>
 <radialGradient id="sun"><stop offset="0" stop-color="#fff7a8"/><stop offset=".7" stop-color="#ffd34e"/><stop offset="1" stop-color="#f39a24"/></radialGradient>
</defs>
<rect width="900" height="520" rx="28" fill="#f8fbfa"/>
<rect x="18" y="18" width="864" height="484" rx="24" fill="white" stroke="#f59e42" stroke-width="3" opacity=".98"/>
<rect x="42" y="38" width="816" height="58" rx="18" fill="#fff4e8" opacity="1"/><text x="66" y="68" font-family="Arial,Helvetica,sans-serif" font-size="30" font-weight="800" fill="#0a2540" text-anchor="start" dominant-baseline="middle">Stroboskopbilder von Bewegungen</text><line x1="42" y1="112" x2="858" y2="112" stroke="#f59e42" stroke-width="4" stroke-linecap="round" opacity="1"/><text x="180" y="175" font-family="Arial,Helvetica,sans-serif" font-size="21" font-weight="800" fill="#0a2540" text-anchor="end" dominant-baseline="middle">gleichförmig</text><line x1="210" y1="175" x2="820" y2="175" stroke="#cbd8e1" stroke-width="3" stroke-linecap="round" opacity="1"/><circle cx="110" cy="175" r="15" fill="#f59e42" stroke="#0a2540" stroke-width="2" opacity="1"/><circle cx="210" cy="175" r="15" fill="#f59e42" stroke="#0a2540" stroke-width="2" opacity="1"/><circle cx="310" cy="175" r="15" fill="#f59e42" stroke="#0a2540" stroke-width="2" opacity="1"/><circle cx="410" cy="175" r="15" fill="#f59e42" stroke="#0a2540" stroke-width="2" opacity="1"/><circle cx="510" cy="175" r="15" fill="#f59e42" stroke="#0a2540" stroke-width="2" opacity="1"/><circle cx="610" cy="175" r="15" fill="#f59e42" stroke="#0a2540" stroke-width="2" opacity="1"/><circle cx="710" cy="175" r="15" fill="#f59e42" stroke="#0a2540" stroke-width="2" opacity="1"/><text x="180" y="295" font-family="Arial,Helvetica,sans-serif" font-size="21" font-weight="800" fill="#0a2540" text-anchor="end" dominant-baseline="middle">beschleunigt</text><line x1="210" y1="295" x2="820" y2="295" stroke="#cbd8e1" stroke-width="3" stroke-linecap="round" opacity="1"/><circle cx="110" cy="295" r="15" fill="#f59e42" stroke="#0a2540" stroke-width="2" opacity="1"/><circle cx="165" cy="295" r="15" fill="#f59e42" stroke="#0a2540" stroke-width="2" opacity="1"/><circle cx="235" cy="295" r="15" fill="#f59e42" stroke="#0a2540" stroke-width="2" opacity="1"/><circle cx="330" cy="295" r="15" fill="#f59e42" stroke="#0a2540" stroke-width="2" opacity="1"/><circle cx="455" cy="295" r="15" fill="#f59e42" stroke="#0a2540" stroke-width="2" opacity="1"/><circle cx="610" cy="295" r="15" fill="#f59e42" stroke="#0a2540" stroke-width="2" opacity="1"/><circle cx="800" cy="295" r="15" fill="#f59e42" stroke="#0a2540" stroke-width="2" opacity="1"/><text x="180" y="415" font-family="Arial,Helvetica,sans-serif" font-size="21" font-weight="800" fill="#0a2540" text-anchor="end" dominant-baseline="middle">verzögert</text><line x1="210" y1="415" x2="820" y2="415" stroke="#cbd8e1" stroke-width="3" stroke-linecap="round" opacity="1"/><circle cx="110" cy="415" r="15" fill="#f59e42" stroke="#0a2540" stroke-width="2" opacity="1"/><circle cx="265" cy="415" r="15" fill="#f59e42" stroke="#0a2540" stroke-width="2" opacity="1"/><circle cx="420" cy="415" r="15" fill="#f59e42" stroke="#0a2540" stroke-width="2" opacity="1"/><circle cx="545" cy="415" r="15" fill="#f59e42" stroke="#0a2540" stroke-width="2" opacity="1"/><circle cx="640" cy="415" r="15" fill="#f59e42" stroke="#0a2540" stroke-width="2" opacity="1"/><circle cx="710" cy="415" r="15" fill="#f59e42" stroke="#0a2540" stroke-width="2" opacity="1"/><circle cx="760" cy="415" r="15" fill="#f59e42" stroke="#0a2540" stroke-width="2" opacity="1"/>
</svg>