<svg xmlns="http://www.w3.org/2000/svg" viewBox="0 0 1200 620" role="img" aria-label="Masse, Gewichtskraft und Reibung">
<defs>
  <linearGradient id="bg" x1="0" y1="0" x2="1" y2="1"><stop offset="0" stop-color="#f7fbff"/><stop offset="1" stop-color="#eef7f4"/></linearGradient>
  <filter id="shadow" x="-20%" y="-20%" width="140%" height="140%"><feDropShadow dx="0" dy="8" stdDeviation="8" flood-color="#0f172a" flood-opacity="0.18"/></filter>
  <marker id="arrow" markerWidth="14" markerHeight="14" refX="10" refY="5" orient="auto" markerUnits="strokeWidth"><path d="M0,0 L10,5 L0,10 Z" fill="#f59e0b"/></marker>
  <marker id="arrowB" markerWidth="14" markerHeight="14" refX="10" refY="5" orient="auto" markerUnits="strokeWidth"><path d="M0,0 L10,5 L0,10 Z" fill="#167a65"/></marker>
</defs>
<rect width="1200" height="620" rx="34" fill="url(#bg)"/>
<rect x="35" y="30" width="1130" height="74" rx="22" fill="#167a65" opacity="0.96"/>
<text x="65" y="78" font-family="Arial, Helvetica, sans-serif" font-size="36" font-weight="700" fill="white">Masse, Gewichtskraft und Reibung</text>

<g filter="url(#shadow)"><rect x="80" y="155" width="1040" height="375" rx="28" fill="white"/></g>
<rect x="130" y="420" width="920" height="25" fill="#d1d5db"/><path d="M130 445 L1050 445" stroke="#6b7280" stroke-width="7" stroke-dasharray="22 18"/>
<rect x="410" y="300" width="240" height="120" rx="16" fill="#fbbf24" stroke="#92400e" stroke-width="8"/>
<line x1="530" y1="300" x2="530" y2="205" stroke="#ef4444" stroke-width="12" marker-end="url(#arrow)"/>
<line x1="530" y1="420" x2="530" y2="505" stroke="#334155" stroke-width="12" marker-end="url(#arrowB)"/>
<line x1="410" y1="360" x2="235" y2="360" stroke="#167a65" stroke-width="12" marker-end="url(#arrowB)"/>
<line x1="650" y1="360" x2="850" y2="360" stroke="#f59e0b" stroke-width="12" marker-end="url(#arrow)"/>
<text x="455" y="370" font-family="Arial" font-size="30" font-weight="700" fill="#0f172a">Klotz</text>
<text x="870" y="368" font-family="Arial" font-size="24" fill="#0f172a">Zugkraft</text><text x="160" y="368" font-family="Arial" font-size="24" fill="#0f172a">Reibung</text>
<text x="555" y="215" font-family="Arial" font-size="24" fill="#0f172a">Normalkraft</text><text x="555" y="505" font-family="Arial" font-size="24" fill="#0f172a">Gewichtskraft</text>

</svg>