<svg xmlns="http://www.w3.org/2000/svg" width="900" height="520" viewBox="0 0 900 520" role="img" aria-labelledby="title desc">
<title id="title">Optik im Alltag</title><desc id="desc">Klare schulische Physikgrafik: Optik im Alltag</desc>
<defs>
 <marker id="arrow" markerWidth="8" markerHeight="8" refX="7" refY="4" orient="auto" markerUnits="strokeWidth"><path d="M0,0 L8,4 L0,8 z" fill="context-stroke"/></marker>
 <filter id="shadow" x="-20%" y="-20%" width="140%" height="140%"><feDropShadow dx="0" dy="8" stdDeviation="8" flood-color="#102a43" flood-opacity=".12"/></filter>
 <linearGradient id="rainbow" x1="0" x2="1"><stop offset="0" stop-color="#6d28d9"/><stop offset=".18" stop-color="#2563eb"/><stop offset=".35" stop-color="#0ea5e9"/><stop offset=".52" stop-color="#22c55e"/><stop offset=".68" stop-color="#facc15"/><stop offset=".83" stop-color="#f97316"/><stop offset="1" stop-color="#ef4444"/></linearGradient>
 <radialGradient id="sun"><stop offset="0" stop-color="#fff7a8"/><stop offset=".7" stop-color="#ffd34e"/><stop offset="1" stop-color="#f39a24"/></radialGradient>
</defs>
<rect width="900" height="520" rx="28" fill="#f7fbfd"/>
<rect x="18" y="18" width="864" height="484" rx="24" fill="white" stroke="#22c7d6" stroke-width="3" opacity=".98"/>
<rect x="42" y="38" width="816" height="58" rx="18" fill="#eef7fa" opacity="1"/><text x="66" y="68" font-family="Arial,Helvetica,sans-serif" font-size="30" font-weight="800" fill="#0a2540" text-anchor="start" dominant-baseline="middle">Optik im Alltag</text><line x1="42" y1="112" x2="858" y2="112" stroke="#22c7d6" stroke-width="4" stroke-linecap="round" opacity="1"/><rect x="80" y="135" width="360" height="140" rx="18" fill="#f8fbfd" stroke="#cbd8e1" stroke-width="2" opacity="1"/><line x1="160" y1="160.0" x2="160" y2="250.0" stroke="#2f80ed" stroke-width="8" stroke-linecap="round" opacity="1"/><line x1="95" y1="170.0" x2="160" y2="205.0" stroke="#f4c95d" stroke-width="4" stroke-linecap="round" marker-end="url(#arrow)" opacity="1"/><line x1="160" y1="205.0" x2="210" y2="170.0" stroke="#22c7d6" stroke-width="4" stroke-linecap="round" marker-end="url(#arrow)" opacity="1"/><text x="225" y="205.0" font-family="Arial,Helvetica,sans-serif" font-size="21" font-weight="750" fill="#1f2a36" text-anchor="start" dominant-baseline="middle">Spiegelbild</text><rect x="470" y="135" width="360" height="140" rx="18" fill="#f8fbfd" stroke="#cbd8e1" stroke-width="2" opacity="1"/><rect x="495" y="163.0" width="90" height="85" rx="10" fill="#bfe7f7" stroke="#2f80ed" stroke-width="3" opacity="1"/><line x1="485" y1="135.0" x2="580" y2="260.0" stroke="#f59e42" stroke-width="10" stroke-linecap="round" opacity="1"/><text x="615" y="205.0" font-family="Arial,Helvetica,sans-serif" font-size="21" font-weight="750" fill="#1f2a36" text-anchor="start" dominant-baseline="middle">Brechung</text><rect x="80" y="297" width="360" height="140" rx="18" fill="#f8fbfd" stroke="#cbd8e1" stroke-width="2" opacity="1"/><polygon points="120,407.0 150,322.0 185,407.0" fill="#d8f2fb" stroke="#2f80ed" stroke-width="3" stroke-linejoin="round" opacity="1"/><line x1="60" y1="367.0" x2="140" y2="367.0" stroke="#f4c95d" stroke-width="5" stroke-linecap="round" marker-end="url(#arrow)" opacity="1"/><path d="M 170 357.0 L 245 322.0" fill="none" stroke="#7c3aed" stroke-width="5" stroke-linecap="round" stroke-linejoin="round" opacity="1"/><path d="M 170 367.0 L 245 367.0" fill="none" stroke="#22c55e" stroke-width="5" stroke-linecap="round" stroke-linejoin="round" opacity="1"/><path d="M 170 377.0 L 245 412.0" fill="none" stroke="#ef4444" stroke-width="5" stroke-linecap="round" stroke-linejoin="round" opacity="1"/><text x="225" y="367.0" font-family="Arial,Helvetica,sans-serif" font-size="21" font-weight="750" fill="#1f2a36" text-anchor="start" dominant-baseline="middle">Spektrum</text><rect x="470" y="297" width="360" height="140" rx="18" fill="#f8fbfd" stroke="#cbd8e1" stroke-width="2" opacity="1"/><ellipse cx="540" cy="367.0" rx="24" ry="55" fill="#d9f3fa" stroke="#22c7d6" stroke-width="4" opacity="1"/><line x1="460" y1="367.0" x2="520" y2="367.0" stroke="#f4c95d" stroke-width="4" stroke-linecap="round" opacity="1"/><line x1="560" y1="367.0" x2="625" y2="342.0" stroke="#f4c95d" stroke-width="4" stroke-linecap="round" opacity="1"/><text x="615" y="367.0" font-family="Arial,Helvetica,sans-serif" font-size="21" font-weight="750" fill="#1f2a36" text-anchor="start" dominant-baseline="middle">Lupe</text>
</svg>