<svg xmlns="http://www.w3.org/2000/svg" width="900" height="520" viewBox="0 0 900 520" role="img" aria-labelledby="title desc">
<title id="title">Endoskop und Glasfaser</title><desc id="desc">Klare schulische Physikgrafik: Endoskop und Glasfaser</desc>
<defs>
 <marker id="arrow" markerWidth="8" markerHeight="8" refX="7" refY="4" orient="auto" markerUnits="strokeWidth"><path d="M0,0 L8,4 L0,8 z" fill="context-stroke"/></marker>
 <filter id="shadow" x="-20%" y="-20%" width="140%" height="140%"><feDropShadow dx="0" dy="8" stdDeviation="8" flood-color="#102a43" flood-opacity=".12"/></filter>
 <linearGradient id="rainbow" x1="0" x2="1"><stop offset="0" stop-color="#6d28d9"/><stop offset=".18" stop-color="#2563eb"/><stop offset=".35" stop-color="#0ea5e9"/><stop offset=".52" stop-color="#22c55e"/><stop offset=".68" stop-color="#facc15"/><stop offset=".83" stop-color="#f97316"/><stop offset="1" stop-color="#ef4444"/></linearGradient>
 <radialGradient id="sun"><stop offset="0" stop-color="#fff7a8"/><stop offset=".7" stop-color="#ffd34e"/><stop offset="1" stop-color="#f39a24"/></radialGradient>
</defs>
<rect width="900" height="520" rx="28" fill="#f7fbfd"/>
<rect x="18" y="18" width="864" height="484" rx="24" fill="white" stroke="#22c7d6" stroke-width="3" opacity=".98"/>
<rect x="42" y="38" width="816" height="58" rx="18" fill="#eef7fa" opacity="1"/><text x="66" y="68" font-family="Arial,Helvetica,sans-serif" font-size="30" font-weight="800" fill="#0a2540" text-anchor="start" dominant-baseline="middle">Anwendung: Endoskop und Datenfaser</text><line x1="42" y1="112" x2="858" y2="112" stroke="#22c7d6" stroke-width="4" stroke-linecap="round" opacity="1"/><path d="M 180 160 C 260 160 240 400 390 400 C 560 400 520 170 710 170" fill="none" stroke="#c6edf8" stroke-width="46" stroke-linecap="round" stroke-linejoin="round" opacity="1"/><path d="M 180 160 C 260 160 240 400 390 400 C 560 400 520 170 710 170" fill="none" stroke="#2f80ed" stroke-width="4" stroke-linecap="round" stroke-linejoin="round" opacity="1"/><circle cx="150" cy="160" r="38" fill="#d8e2e9" stroke="#0a2540" stroke-width="3" opacity="1"/><rect x="700" y="135" width="90" height="70" rx="12" fill="#e6eef3" stroke="#0a2540" stroke-width="3" opacity="1"/><circle cx="745" cy="170" r="18" fill="#22c7d6" opacity="1"/><text x="150" y="225" font-family="Arial,Helvetica,sans-serif" font-size="19" font-weight="700" fill="#5d6b78" text-anchor="middle" dominant-baseline="middle">Kamera</text><text x="745" y="230" font-family="Arial,Helvetica,sans-serif" font-size="19" font-weight="700" fill="#5d6b78" text-anchor="middle" dominant-baseline="middle">Monitor</text><text x="450" y="465" font-family="Arial,Helvetica,sans-serif" font-size="20" font-weight="800" fill="#0a2540" text-anchor="middle" dominant-baseline="middle">Licht und Bildinformationen werden im Faserbündel geführt.</text>
</svg>