<svg xmlns="http://www.w3.org/2000/svg" width="900" height="520" viewBox="0 0 900 520" role="img" aria-labelledby="title desc">
<title id="title">Lichtleitung in einer Glasfaser</title><desc id="desc">Klare schulische Physikgrafik: Lichtleitung in einer Glasfaser</desc>
<defs>
 <marker id="arrow" markerWidth="8" markerHeight="8" refX="7" refY="4" orient="auto" markerUnits="strokeWidth"><path d="M0,0 L8,4 L0,8 z" fill="context-stroke"/></marker>
 <filter id="shadow" x="-20%" y="-20%" width="140%" height="140%"><feDropShadow dx="0" dy="8" stdDeviation="8" flood-color="#102a43" flood-opacity=".12"/></filter>
 <linearGradient id="rainbow" x1="0" x2="1"><stop offset="0" stop-color="#6d28d9"/><stop offset=".18" stop-color="#2563eb"/><stop offset=".35" stop-color="#0ea5e9"/><stop offset=".52" stop-color="#22c55e"/><stop offset=".68" stop-color="#facc15"/><stop offset=".83" stop-color="#f97316"/><stop offset="1" stop-color="#ef4444"/></linearGradient>
 <radialGradient id="sun"><stop offset="0" stop-color="#fff7a8"/><stop offset=".7" stop-color="#ffd34e"/><stop offset="1" stop-color="#f39a24"/></radialGradient>
</defs>
<rect width="900" height="520" rx="28" fill="#f7fbfd"/>
<rect x="18" y="18" width="864" height="484" rx="24" fill="white" stroke="#22c7d6" stroke-width="3" opacity=".98"/>
<rect x="42" y="38" width="816" height="58" rx="18" fill="#eef7fa" opacity="1"/><text x="66" y="68" font-family="Arial,Helvetica,sans-serif" font-size="30" font-weight="800" fill="#0a2540" text-anchor="start" dominant-baseline="middle">Licht bleibt im Lichtleiter</text><line x1="42" y1="112" x2="858" y2="112" stroke="#22c7d6" stroke-width="4" stroke-linecap="round" opacity="1"/><path d="M 120 355 C 260 120 420 420 760 170" fill="none" stroke="#b9e8f7" stroke-width="70" stroke-linecap="round" stroke-linejoin="round" opacity="1"/><path d="M 120 355 C 260 120 420 420 760 170" fill="none" stroke="#2f80ed" stroke-width="4" stroke-linecap="round" stroke-linejoin="round" opacity="1"/><line x1="135" y1="340" x2="240" y2="215" stroke="#f4c95d" stroke-width="5" stroke-linecap="round" opacity="1"/><line x1="240" y1="215" x2="340" y2="285" stroke="#f4c95d" stroke-width="5" stroke-linecap="round" opacity="1"/><line x1="340" y1="285" x2="455" y2="355" stroke="#f4c95d" stroke-width="5" stroke-linecap="round" opacity="1"/><line x1="455" y1="355" x2="570" y2="300" stroke="#f4c95d" stroke-width="5" stroke-linecap="round" opacity="1"/><line x1="570" y1="300" x2="690" y2="210" stroke="#f4c95d" stroke-width="5" stroke-linecap="round" opacity="1"/><line x1="690" y1="210" x2="755" y2="175" stroke="#f4c95d" stroke-width="5" stroke-linecap="round" marker-end="url(#arrow)" opacity="1"/><text x="450" y="460" font-family="Arial,Helvetica,sans-serif" font-size="21" font-weight="800" fill="#0a2540" text-anchor="middle" dominant-baseline="middle">Viele Totalreflexionen führen das Licht durch die Krümmung.</text>
</svg>