<svg xmlns="http://www.w3.org/2000/svg" viewBox="0 0 1200 620" role="img" aria-label="Stromkreis: Quelle, Weg, Gerät">
<defs>
  <linearGradient id="bg" x1="0" y1="0" x2="1" y2="1"><stop offset="0" stop-color="#f7fbff"/><stop offset="1" stop-color="#eef7f4"/></linearGradient>
  <filter id="shadow" x="-20%" y="-20%" width="140%" height="140%"><feDropShadow dx="0" dy="8" stdDeviation="8" flood-color="#0f172a" flood-opacity="0.18"/></filter>
  <marker id="arrow" markerWidth="14" markerHeight="14" refX="10" refY="5" orient="auto" markerUnits="strokeWidth"><path d="M0,0 L10,5 L0,10 Z" fill="#f5b301"/></marker>
  <marker id="arrowB" markerWidth="14" markerHeight="14" refX="10" refY="5" orient="auto" markerUnits="strokeWidth"><path d="M0,0 L10,5 L0,10 Z" fill="#0f69b5"/></marker>
</defs>
<rect width="1200" height="620" rx="34" fill="url(#bg)"/>
<rect x="35" y="30" width="1130" height="74" rx="22" fill="#0f69b5" opacity="0.96"/>
<text x="65" y="78" font-family="Arial, Helvetica, sans-serif" font-size="36" font-weight="700" fill="white">Stromkreis: Quelle, Weg, Gerät</text>

<g filter="url(#shadow)"><rect x="85" y="145" width="1030" height="390" rx="28" fill="white"/></g>
<rect x="175" y="290" width="130" height="95" rx="18" fill="#f59e0b" stroke="#92400e" stroke-width="7"/><text x="215" y="350" font-size="42" font-family="Arial" fill="#0f172a">+</text>
<circle cx="600" cy="260" r="70" fill="#fde68a" stroke="#f59e0b" stroke-width="8"/><rect x="570" y="330" width="60" height="55" rx="10" fill="#94a3b8"/>
<line x1="305" y1="335" x2="570" y2="335" stroke="#334155" stroke-width="12"/><line x1="630" y1="335" x2="895" y2="335" stroke="#334155" stroke-width="12"/><line x1="895" y1="335" x2="895" y2="430" stroke="#334155" stroke-width="12"/><line x1="895" y1="430" x2="240" y2="430" stroke="#334155" stroke-width="12"/><line x1="240" y1="430" x2="240" y2="385" stroke="#334155" stroke-width="12"/>
<line x1="895" y1="335" x2="1000" y2="265" stroke="#0f69b5" stroke-width="12"/><circle cx="1015" cy="255" r="18" fill="#334155"/>
<text x="150" y="515" font-family="Arial" font-size="25" fill="#334155">Nur ein geschlossener Stromkreis ermöglicht dauerhaften Stromfluss.</text>

</svg>