<svg xmlns="http://www.w3.org/2000/svg" viewBox="0 0 1200 620" role="img" aria-label="Strom im Haus: Sicherheit nur im Modell">
<defs>
  <linearGradient id="bg" x1="0" y1="0" x2="1" y2="1"><stop offset="0" stop-color="#f7fbff"/><stop offset="1" stop-color="#eef7f4"/></linearGradient>
  <filter id="shadow" x="-20%" y="-20%" width="140%" height="140%"><feDropShadow dx="0" dy="8" stdDeviation="8" flood-color="#0f172a" flood-opacity="0.18"/></filter>
  <marker id="arrow" markerWidth="14" markerHeight="14" refX="10" refY="5" orient="auto" markerUnits="strokeWidth"><path d="M0,0 L10,5 L0,10 Z" fill="#f5b301"/></marker>
  <marker id="arrowB" markerWidth="14" markerHeight="14" refX="10" refY="5" orient="auto" markerUnits="strokeWidth"><path d="M0,0 L10,5 L0,10 Z" fill="#0f69b5"/></marker>
</defs>
<rect width="1200" height="620" rx="34" fill="url(#bg)"/>
<rect x="35" y="30" width="1130" height="74" rx="22" fill="#0f69b5" opacity="0.96"/>
<text x="65" y="78" font-family="Arial, Helvetica, sans-serif" font-size="36" font-weight="700" fill="white">Strom im Haus: Sicherheit nur im Modell</text>

<g filter="url(#shadow)"><rect x="85" y="145" width="1030" height="390" rx="28" fill="white"/></g>
<path d="M165 420 L165 285 L285 200 L405 285 L405 420 Z" fill="#e0f2fe" stroke="#0f172a" stroke-width="7"/><rect x="225" y="340" width="80" height="80" fill="#bfdbfe" stroke="#0f172a" stroke-width="5"/>
<rect x="530" y="230" width="180" height="260" rx="20" fill="#f8fafc" stroke="#334155" stroke-width="7"/><rect x="565" y="270" width="110" height="35" rx="8" fill="#ef4444"/><rect x="565" y="325" width="110" height="35" rx="8" fill="#22c55e"/><rect x="565" y="380" width="110" height="35" rx="8" fill="#94a3b8"/>
<path d="M855 230 L1040 490 H670 Z" fill="#fee2e2" stroke="#ef4444" stroke-width="8"/><text x="810" y="420" font-family="Arial" font-size="92" font-weight="700" fill="#ef4444">!</text>
<text x="155" y="505" font-family="Arial" font-size="24" fill="#334155">Echte Steckdosen sind tabu: Experimente nur mit Kleinspannung und Modell-Sicherung.</text>

</svg>