<svg xmlns="http://www.w3.org/2000/svg" viewBox="0 0 1200 620" role="img" aria-label="Spannung als Energie pro Ladung">
<defs>
  <linearGradient id="bg" x1="0" y1="0" x2="1" y2="1"><stop offset="0" stop-color="#f7fbff"/><stop offset="1" stop-color="#eef7f4"/></linearGradient>
  <filter id="shadow" x="-20%" y="-20%" width="140%" height="140%"><feDropShadow dx="0" dy="8" stdDeviation="8" flood-color="#0f172a" flood-opacity="0.18"/></filter>
  <marker id="arrow" markerWidth="14" markerHeight="14" refX="10" refY="5" orient="auto" markerUnits="strokeWidth"><path d="M0,0 L10,5 L0,10 Z" fill="#f5b301"/></marker>
  <marker id="arrowB" markerWidth="14" markerHeight="14" refX="10" refY="5" orient="auto" markerUnits="strokeWidth"><path d="M0,0 L10,5 L0,10 Z" fill="#0f69b5"/></marker>
</defs>
<rect width="1200" height="620" rx="34" fill="url(#bg)"/>
<rect x="35" y="30" width="1130" height="74" rx="22" fill="#0f69b5" opacity="0.96"/>
<text x="65" y="78" font-family="Arial, Helvetica, sans-serif" font-size="36" font-weight="700" fill="white">Spannung als Energie pro Ladung</text>

<g filter="url(#shadow)"><rect x="85" y="145" width="1030" height="390" rx="28" fill="white"/></g>
<rect x="160" y="250" width="210" height="150" rx="24" fill="#f59e0b" stroke="#92400e" stroke-width="8"/><text x="200" y="340" font-size="50" font-family="Arial" fill="#0f172a">+  −</text>
<path d="M450 420 C520 240, 675 240, 760 420" fill="none" stroke="#94a3b8" stroke-width="36" stroke-linecap="round"/>
<circle cx="610" cy="310" r="42" fill="#60a5fa" stroke="#1e3a8a" stroke-width="6"/><line x1="610" y1="310" x2="705" y2="250" stroke="#0f69b5" stroke-width="10" marker-end="url(#arrowB)"/>
<circle cx="925" cy="320" r="75" fill="#e0f2fe" stroke="#0f172a" stroke-width="8"/><text x="890" y="335" font-size="42" font-family="Arial" font-weight="700" fill="#0f172a">V</text>
<text x="140" y="500" font-size="25" font-family="Arial" fill="#334155">Spannung ist eine Energieangabe: Wie viel Energie erhält eine Ladung?</text>

</svg>