<svg xmlns="http://www.w3.org/2000/svg" width="900" height="520" viewBox="0 0 900 520" role="img" aria-labelledby="title desc">
<title id="title">Gute und schlechte Videoaufnahme</title><desc id="desc">Klare schulische Physikgrafik: Gute und schlechte Videoaufnahme</desc>
<defs>
 <marker id="arrow" markerWidth="8" markerHeight="8" refX="7" refY="4" orient="auto" markerUnits="strokeWidth"><path d="M0,0 L8,4 L0,8 z" fill="context-stroke"/></marker>
 <filter id="shadow" x="-20%" y="-20%" width="140%" height="140%"><feDropShadow dx="0" dy="8" stdDeviation="8" flood-color="#102a43" flood-opacity=".12"/></filter>
 <linearGradient id="rainbow" x1="0" x2="1"><stop offset="0" stop-color="#6d28d9"/><stop offset=".18" stop-color="#2563eb"/><stop offset=".35" stop-color="#0ea5e9"/><stop offset=".52" stop-color="#22c55e"/><stop offset=".68" stop-color="#facc15"/><stop offset=".83" stop-color="#f97316"/><stop offset="1" stop-color="#ef4444"/></linearGradient>
 <radialGradient id="sun"><stop offset="0" stop-color="#fff7a8"/><stop offset=".7" stop-color="#ffd34e"/><stop offset="1" stop-color="#f39a24"/></radialGradient>
</defs>
<rect width="900" height="520" rx="28" fill="#f8fbfa"/>
<rect x="18" y="18" width="864" height="484" rx="24" fill="white" stroke="#f59e42" stroke-width="3" opacity=".98"/>
<rect x="42" y="38" width="816" height="58" rx="18" fill="#fff4e8" opacity="1"/><text x="66" y="68" font-family="Arial,Helvetica,sans-serif" font-size="30" font-weight="800" fill="#0a2540" text-anchor="start" dominant-baseline="middle">Aufbau prüfen: ungünstig oder geeignet?</text><line x1="42" y1="112" x2="858" y2="112" stroke="#f59e42" stroke-width="4" stroke-linecap="round" opacity="1"/><rect x="55" y="150" width="370" height="285" rx="18" fill="#fff5f5" stroke="#ef5b5b" stroke-width="3" opacity="1"/><line x1="90" y1="360" x2="390" y2="360" stroke="#0a2540" stroke-width="4" stroke-linecap="round" opacity="1"/><rect x="190" y="320" width="70" height="35" rx="8" fill="#f59e42" stroke="#0a2540" stroke-width="2" opacity="1"/><circle cx="205" cy="365" r="10" fill="#0a2540" opacity="1"/><circle cx="250" cy="365" r="10" fill="#0a2540" opacity="1"/><rect x="330" y="152" width="50" height="36" rx="6" fill="#dfe8ef" stroke="#0a2540" stroke-width="3" opacity="1"/><line x1="355" y1="190" x2="355" y2="245" stroke="#0a2540" stroke-width="5" stroke-linecap="round" opacity="1"/><line x1="355" y1="170" x2="225" y2="330" stroke="#22c7d6" stroke-width="3" stroke-linecap="round" stroke-dasharray="7 7" opacity="1"/><line x1="95" y1="180" x2="385" y2="400" stroke="#ef5b5b" stroke-width="7" stroke-linecap="round" opacity="1"/><line x1="95" y1="400" x2="385" y2="180" stroke="#ef5b5b" stroke-width="7" stroke-linecap="round" opacity="1"/><text x="240" y="465" font-family="Arial,Helvetica,sans-serif" font-size="22" font-weight="850" fill="#ef5b5b" text-anchor="middle" dominant-baseline="middle">ungünstig</text><rect x="475" y="150" width="370" height="285" rx="18" fill="#eefaf4" stroke="#2fbf71" stroke-width="3" opacity="1"/><line x1="510" y1="360" x2="810" y2="360" stroke="#0a2540" stroke-width="4" stroke-linecap="round" opacity="1"/><rect x="610" y="320" width="70" height="35" rx="8" fill="#f59e42" stroke="#0a2540" stroke-width="2" opacity="1"/><circle cx="625" cy="365" r="10" fill="#0a2540" opacity="1"/><circle cx="670" cy="365" r="10" fill="#0a2540" opacity="1"/><rect x="525" y="217" width="50" height="36" rx="6" fill="#dfe8ef" stroke="#0a2540" stroke-width="3" opacity="1"/><line x1="550" y1="255" x2="550" y2="310" stroke="#0a2540" stroke-width="5" stroke-linecap="round" opacity="1"/><line x1="550" y1="235" x2="645" y2="330" stroke="#22c7d6" stroke-width="3" stroke-linecap="round" stroke-dasharray="7 7" opacity="1"/><text x="790" y="190" font-family="Arial,Helvetica,sans-serif" font-size="36" font-weight="900" fill="#2fbf71" text-anchor="middle" dominant-baseline="middle">✓</text><text x="660" y="465" font-family="Arial,Helvetica,sans-serif" font-size="22" font-weight="850" fill="#2fbf71" text-anchor="middle" dominant-baseline="middle">geeignet</text>
</svg>