<svg xmlns="http://www.w3.org/2000/svg" width="900" height="520" viewBox="0 0 900 520" role="img" aria-labelledby="title desc">
<title id="title">Tablet filmt einen Versuch</title><desc id="desc">Klare schulische Physikgrafik: Tablet filmt einen Versuch</desc>
<defs>
 <marker id="arrow" markerWidth="8" markerHeight="8" refX="7" refY="4" orient="auto" markerUnits="strokeWidth"><path d="M0,0 L8,4 L0,8 z" fill="context-stroke"/></marker>
 <filter id="shadow" x="-20%" y="-20%" width="140%" height="140%"><feDropShadow dx="0" dy="8" stdDeviation="8" flood-color="#102a43" flood-opacity=".12"/></filter>
 <linearGradient id="rainbow" x1="0" x2="1"><stop offset="0" stop-color="#6d28d9"/><stop offset=".18" stop-color="#2563eb"/><stop offset=".35" stop-color="#0ea5e9"/><stop offset=".52" stop-color="#22c55e"/><stop offset=".68" stop-color="#facc15"/><stop offset=".83" stop-color="#f97316"/><stop offset="1" stop-color="#ef4444"/></linearGradient>
 <radialGradient id="sun"><stop offset="0" stop-color="#fff7a8"/><stop offset=".7" stop-color="#ffd34e"/><stop offset="1" stop-color="#f39a24"/></radialGradient>
</defs>
<rect width="900" height="520" rx="28" fill="#f8fbfa"/>
<rect x="18" y="18" width="864" height="484" rx="24" fill="white" stroke="#f59e42" stroke-width="3" opacity=".98"/>
<rect x="42" y="38" width="816" height="58" rx="18" fill="#fff4e8" opacity="1"/><text x="66" y="68" font-family="Arial,Helvetica,sans-serif" font-size="30" font-weight="800" fill="#0a2540" text-anchor="start" dominant-baseline="middle">Videoanalyse: Messszene richtig aufnehmen</text><line x1="42" y1="112" x2="858" y2="112" stroke="#f59e42" stroke-width="4" stroke-linecap="round" opacity="1"/><rect x="160" y="150" width="560" height="300" rx="22" fill="#dfe8ef" stroke="#0a2540" stroke-width="5" opacity="1"/><rect x="195" y="185" width="490" height="230" rx="8" fill="white" stroke="#cbd8e1" stroke-width="2" opacity="1"/><line x1="230" y1="365" x2="650" y2="365" stroke="#0a2540" stroke-width="5" stroke-linecap="round" opacity="1"/><rect x="270" y="325" width="90" height="40" rx="8" fill="#f59e42" stroke="#0a2540" stroke-width="3" opacity="1"/><circle cx="290" cy="370" r="11" fill="#0a2540" opacity="1"/><circle cx="340" cy="370" r="11" fill="#0a2540" opacity="1"/><line x1="430" y1="340" x2="430" y2="370" stroke="#2f80ed" stroke-width="3" stroke-linecap="round" opacity="1"/><line x1="452" y1="340" x2="452" y2="370" stroke="#2f80ed" stroke-width="3" stroke-linecap="round" opacity="1"/><line x1="474" y1="340" x2="474" y2="370" stroke="#2f80ed" stroke-width="3" stroke-linecap="round" opacity="1"/><line x1="496" y1="340" x2="496" y2="370" stroke="#2f80ed" stroke-width="3" stroke-linecap="round" opacity="1"/><line x1="518" y1="340" x2="518" y2="370" stroke="#2f80ed" stroke-width="3" stroke-linecap="round" opacity="1"/><line x1="540" y1="340" x2="540" y2="370" stroke="#2f80ed" stroke-width="3" stroke-linecap="round" opacity="1"/><line x1="562" y1="340" x2="562" y2="370" stroke="#2f80ed" stroke-width="3" stroke-linecap="round" opacity="1"/><line x1="584" y1="340" x2="584" y2="370" stroke="#2f80ed" stroke-width="3" stroke-linecap="round" opacity="1"/><line x1="606" y1="340" x2="606" y2="370" stroke="#2f80ed" stroke-width="3" stroke-linecap="round" opacity="1"/><line x1="628" y1="340" x2="628" y2="370" stroke="#2f80ed" stroke-width="3" stroke-linecap="round" opacity="1"/><text x="540" y="320" font-family="Arial,Helvetica,sans-serif" font-size="17" font-weight="750" fill="#2f80ed" text-anchor="middle" dominant-baseline="middle">sichtbarer Maßstab</text><circle cx="750" cy="245" r="28" fill="#ef5b5b" opacity="1"/><text x="750" y="290" font-family="Arial,Helvetica,sans-serif" font-size="17" font-weight="750" fill="#ef5b5b" text-anchor="middle" dominant-baseline="middle">Aufnahme</text>
</svg>