<svg xmlns="http://www.w3.org/2000/svg" width="900" height="520" viewBox="0 0 900 520" role="img" aria-labelledby="title desc">
<title id="title">Absorptionsspektrum eines Sterns</title><desc id="desc">Klare schulische Physikgrafik: Absorptionsspektrum eines Sterns</desc>
<defs>
 <marker id="arrow" markerWidth="8" markerHeight="8" refX="7" refY="4" orient="auto" markerUnits="strokeWidth"><path d="M0,0 L8,4 L0,8 z" fill="context-stroke"/></marker>
 <filter id="shadow" x="-20%" y="-20%" width="140%" height="140%"><feDropShadow dx="0" dy="8" stdDeviation="8" flood-color="#102a43" flood-opacity=".12"/></filter>
 <linearGradient id="rainbow" x1="0" x2="1"><stop offset="0" stop-color="#6d28d9"/><stop offset=".18" stop-color="#2563eb"/><stop offset=".35" stop-color="#0ea5e9"/><stop offset=".52" stop-color="#22c55e"/><stop offset=".68" stop-color="#facc15"/><stop offset=".83" stop-color="#f97316"/><stop offset="1" stop-color="#ef4444"/></linearGradient>
 <radialGradient id="sun"><stop offset="0" stop-color="#fff7a8"/><stop offset=".7" stop-color="#ffd34e"/><stop offset="1" stop-color="#f39a24"/></radialGradient>
</defs>
<rect width="900" height="520" rx="28" fill="#f3f6ff"/>
<rect x="18" y="18" width="864" height="484" rx="24" fill="white" stroke="#7257d5" stroke-width="3" opacity=".98"/>
<rect x="42" y="38" width="816" height="58" rx="18" fill="#f0eeff" opacity="1"/><text x="66" y="68" font-family="Arial,Helvetica,sans-serif" font-size="30" font-weight="800" fill="#0a2540" text-anchor="start" dominant-baseline="middle">Sternspektrum mit Absorptionslinien</text><line x1="42" y1="112" x2="858" y2="112" stroke="#7257d5" stroke-width="4" stroke-linecap="round" opacity="1"/><rect x="85" y="205" width="730" height="135" rx="14" fill="url(#rainbow)" stroke="#0a2540" stroke-width="3" opacity="1"/><rect x="170" y="205" width="7" height="135" rx="0" fill="#111827" opacity="0.85"/><rect x="245" y="205" width="4" height="135" rx="0" fill="#111827" opacity="0.85"/><rect x="360" y="205" width="8" height="135" rx="0" fill="#111827" opacity="0.85"/><rect x="510" y="205" width="5" height="135" rx="0" fill="#111827" opacity="0.85"/><rect x="620" y="205" width="9" height="135" rx="0" fill="#111827" opacity="0.85"/><rect x="735" y="205" width="5" height="135" rx="0" fill="#111827" opacity="0.85"/><text x="450" y="390" font-family="Arial,Helvetica,sans-serif" font-size="21" font-weight="850" fill="#0a2540" text-anchor="middle" dominant-baseline="middle">Dunkle Linien verraten chemische Elemente in der Sternatmosphäre.</text>
</svg>