<svg xmlns="http://www.w3.org/2000/svg" viewBox="0 0 1200 620" role="img" aria-label="Elektrische Ladungen und Elektroskop">
<defs>
  <linearGradient id="bg" x1="0" y1="0" x2="1" y2="1"><stop offset="0" stop-color="#f7fbff"/><stop offset="1" stop-color="#eef7f4"/></linearGradient>
  <filter id="shadow" x="-20%" y="-20%" width="140%" height="140%"><feDropShadow dx="0" dy="8" stdDeviation="8" flood-color="#0f172a" flood-opacity="0.18"/></filter>
  <marker id="arrow" markerWidth="14" markerHeight="14" refX="10" refY="5" orient="auto" markerUnits="strokeWidth"><path d="M0,0 L10,5 L0,10 Z" fill="#f5b301"/></marker>
  <marker id="arrowB" markerWidth="14" markerHeight="14" refX="10" refY="5" orient="auto" markerUnits="strokeWidth"><path d="M0,0 L10,5 L0,10 Z" fill="#0f69b5"/></marker>
</defs>
<rect width="1200" height="620" rx="34" fill="url(#bg)"/>
<rect x="35" y="30" width="1130" height="74" rx="22" fill="#0f69b5" opacity="0.96"/>
<text x="65" y="78" font-family="Arial, Helvetica, sans-serif" font-size="36" font-weight="700" fill="white">Elektrische Ladungen und Elektroskop</text>

<g filter="url(#shadow)"><rect x="85" y="145" width="1030" height="390" rx="28" fill="white"/></g>
<ellipse cx="360" cy="300" rx="95" ry="125" fill="#f87171" stroke="#991b1b" stroke-width="7"/>
<path d="M360 425 C340 470, 330 485, 355 515" fill="none" stroke="#334155" stroke-width="6"/>
<g font-family="Arial" font-size="28" font-weight="700" fill="#fee2e2"><text x="320" y="250">−</text><text x="380" y="285">−</text><text x="335" y="340">−</text><text x="405" y="355">−</text></g>
<line x1="610" y1="210" x2="610" y2="430" stroke="#334155" stroke-width="10"/><circle cx="610" cy="195" r="38" fill="#e0f2fe" stroke="#0f172a" stroke-width="6"/><line x1="610" y1="430" x2="545" y2="500" stroke="#f59e0b" stroke-width="9"/><line x1="610" y1="430" x2="675" y2="500" stroke="#f59e0b" stroke-width="9"/>
<rect x="520" y="500" width="180" height="20" rx="10" fill="#94a3b8"/>
<text x="780" y="305" font-family="Arial" font-size="24" fill="#0f172a">Gleichnamige Ladungen</text><text x="780" y="335" font-family="Arial" font-size="24" fill="#0f172a">stoßen sich ab.</text>

</svg>