<svg xmlns="http://www.w3.org/2000/svg" viewBox="0 0 1200 620" role="img" aria-label="Widerstand und Ohmsches Gesetz">
<defs>
  <linearGradient id="bg" x1="0" y1="0" x2="1" y2="1"><stop offset="0" stop-color="#f7fbff"/><stop offset="1" stop-color="#eef7f4"/></linearGradient>
  <filter id="shadow" x="-20%" y="-20%" width="140%" height="140%"><feDropShadow dx="0" dy="8" stdDeviation="8" flood-color="#0f172a" flood-opacity="0.18"/></filter>
  <marker id="arrow" markerWidth="14" markerHeight="14" refX="10" refY="5" orient="auto" markerUnits="strokeWidth"><path d="M0,0 L10,5 L0,10 Z" fill="#f5b301"/></marker>
  <marker id="arrowB" markerWidth="14" markerHeight="14" refX="10" refY="5" orient="auto" markerUnits="strokeWidth"><path d="M0,0 L10,5 L0,10 Z" fill="#0f69b5"/></marker>
</defs>
<rect width="1200" height="620" rx="34" fill="url(#bg)"/>
<rect x="35" y="30" width="1130" height="74" rx="22" fill="#0f69b5" opacity="0.96"/>
<text x="65" y="78" font-family="Arial, Helvetica, sans-serif" font-size="36" font-weight="700" fill="white">Widerstand und Ohmsches Gesetz</text>

<g filter="url(#shadow)"><rect x="75" y="145" width="500" height="395" rx="28" fill="white"/><rect x="625" y="145" width="500" height="395" rx="28" fill="white"/></g>
<line x1="145" y1="470" x2="515" y2="470" stroke="#334155" stroke-width="6"/><line x1="145" y1="470" x2="145" y2="205" stroke="#334155" stroke-width="6"/>
<line x1="155" y1="450" x2="500" y2="230" stroke="#0f69b5" stroke-width="10"/><path d="M155 455 C250 380, 330 350, 500 430" stroke="#ef4444" stroke-width="8" fill="none"/>
<text x="480" y="500" font-family="Arial" font-size="24">I</text><text x="115" y="215" font-family="Arial" font-size="24">U</text><text x="190" y="235" font-family="Arial" font-size="23" fill="#0f172a">Festwiderstand</text><text x="260" y="430" font-family="Arial" font-size="23" fill="#0f172a">Glühlampe</text>
<path d="M690 340 H800 L825 310 L875 370 L925 310 L975 370 L1025 340 H1080" fill="none" stroke="#334155" stroke-width="9"/>
<rect x="735" y="430" width="120" height="65" rx="12" fill="#e0f2fe" stroke="#0f172a" stroke-width="5"/><text x="775" y="472" font-size="30" font-family="Arial">A</text><circle cx="1000" cy="450" r="42" fill="#e0f2fe" stroke="#0f172a" stroke-width="5"/><text x="987" y="461" font-size="28" font-family="Arial">V</text>
<text x="690" y="210" font-family="Arial" font-size="25" fill="#334155">R = U / I</text>

</svg>