<svg xmlns="http://www.w3.org/2000/svg" width="900" height="520" viewBox="0 0 900 520" role="img" aria-labelledby="title desc">
<title id="title">Rückläufige Planetenbewegung</title><desc id="desc">Klare schulische Physikgrafik: Rückläufige Planetenbewegung</desc>
<defs>
 <marker id="arrow" markerWidth="8" markerHeight="8" refX="7" refY="4" orient="auto" markerUnits="strokeWidth"><path d="M0,0 L8,4 L0,8 z" fill="context-stroke"/></marker>
 <filter id="shadow" x="-20%" y="-20%" width="140%" height="140%"><feDropShadow dx="0" dy="8" stdDeviation="8" flood-color="#102a43" flood-opacity=".12"/></filter>
 <linearGradient id="rainbow" x1="0" x2="1"><stop offset="0" stop-color="#6d28d9"/><stop offset=".18" stop-color="#2563eb"/><stop offset=".35" stop-color="#0ea5e9"/><stop offset=".52" stop-color="#22c55e"/><stop offset=".68" stop-color="#facc15"/><stop offset=".83" stop-color="#f97316"/><stop offset="1" stop-color="#ef4444"/></linearGradient>
 <radialGradient id="sun"><stop offset="0" stop-color="#fff7a8"/><stop offset=".7" stop-color="#ffd34e"/><stop offset="1" stop-color="#f39a24"/></radialGradient>
</defs>
<rect width="900" height="520" rx="28" fill="#f3f6ff"/>
<rect x="18" y="18" width="864" height="484" rx="24" fill="white" stroke="#7257d5" stroke-width="3" opacity=".98"/>
<rect x="42" y="38" width="816" height="58" rx="18" fill="#f0eeff" opacity="1"/><text x="66" y="68" font-family="Arial,Helvetica,sans-serif" font-size="30" font-weight="800" fill="#0a2540" text-anchor="start" dominant-baseline="middle">Scheinbar rückläufige Planetenbewegung</text><line x1="42" y1="112" x2="858" y2="112" stroke="#7257d5" stroke-width="4" stroke-linecap="round" opacity="1"/><path d="M 110 300 L 200 250 L 300 220 L 390 250 L 450 315 L 390 370 L 300 350 L 250 300 L 340 280 L 480 270 L 620 250 L 790 230" fill="none" stroke="#7257d5" stroke-width="6" stroke-linecap="round" stroke-linejoin="round" opacity="1"/><circle cx="110" cy="300" r="8" fill="#f4c95d" opacity="1"/><circle cx="300" cy="220" r="8" fill="#f4c95d" opacity="1"/><circle cx="450" cy="315" r="8" fill="#f4c95d" opacity="1"/><circle cx="300" cy="350" r="8" fill="#f4c95d" opacity="1"/><circle cx="340" cy="280" r="8" fill="#f4c95d" opacity="1"/><circle cx="620" cy="250" r="8" fill="#f4c95d" opacity="1"/><text x="450" y="420" font-family="Arial,Helvetica,sans-serif" font-size="21" font-weight="850" fill="#0a2540" text-anchor="middle" dominant-baseline="middle">Die Schleife entsteht durch unterschiedliche Umlaufgeschwindigkeiten.</text>
</svg>