<svg xmlns="http://www.w3.org/2000/svg" width="900" height="520" viewBox="0 0 900 520" role="img" aria-labelledby="title desc">
<title id="title">Weltbilder im Vergleich</title><desc id="desc">Klare schulische Physikgrafik: Weltbilder im Vergleich</desc>
<defs>
 <marker id="arrow" markerWidth="8" markerHeight="8" refX="7" refY="4" orient="auto" markerUnits="strokeWidth"><path d="M0,0 L8,4 L0,8 z" fill="context-stroke"/></marker>
 <filter id="shadow" x="-20%" y="-20%" width="140%" height="140%"><feDropShadow dx="0" dy="8" stdDeviation="8" flood-color="#102a43" flood-opacity=".12"/></filter>
 <linearGradient id="rainbow" x1="0" x2="1"><stop offset="0" stop-color="#6d28d9"/><stop offset=".18" stop-color="#2563eb"/><stop offset=".35" stop-color="#0ea5e9"/><stop offset=".52" stop-color="#22c55e"/><stop offset=".68" stop-color="#facc15"/><stop offset=".83" stop-color="#f97316"/><stop offset="1" stop-color="#ef4444"/></linearGradient>
 <radialGradient id="sun"><stop offset="0" stop-color="#fff7a8"/><stop offset=".7" stop-color="#ffd34e"/><stop offset="1" stop-color="#f39a24"/></radialGradient>
</defs>
<rect width="900" height="520" rx="28" fill="#f3f6ff"/>
<rect x="18" y="18" width="864" height="484" rx="24" fill="white" stroke="#7257d5" stroke-width="3" opacity=".98"/>
<rect x="42" y="38" width="816" height="58" rx="18" fill="#f0eeff" opacity="1"/><text x="66" y="68" font-family="Arial,Helvetica,sans-serif" font-size="30" font-weight="800" fill="#0a2540" text-anchor="start" dominant-baseline="middle">Geozentrisches und heliozentrisches Weltbild</text><line x1="42" y1="112" x2="858" y2="112" stroke="#7257d5" stroke-width="4" stroke-linecap="round" opacity="1"/><rect x="60" y="145" width="370" height="300" rx="18" fill="#f8fbfd" stroke="#cbd8e1" stroke-width="2" opacity="1"/><circle cx="245" cy="285" r="36" fill="#2f80ed" opacity="1"/><text x="245" y="285" font-family="Arial,Helvetica,sans-serif" font-size="16" font-weight="800" fill="#0a2540" text-anchor="middle" dominant-baseline="middle">Erde</text><circle cx="320" cy="285" r="10" fill="#ef5b5b" opacity="1"/><ellipse cx="245" cy="285" rx="75" ry="75" fill="none" stroke="#cbd8e1" stroke-width="2" opacity="1"/><circle cx="365" cy="285" r="10" fill="#7257d5" opacity="1"/><ellipse cx="245" cy="285" rx="120" ry="120" fill="none" stroke="#cbd8e1" stroke-width="2" opacity="1"/><text x="245" y="470" font-family="Arial,Helvetica,sans-serif" font-size="22" font-weight="850" fill="#0a2540" text-anchor="middle" dominant-baseline="middle">geozentrisch</text><rect x="475" y="145" width="370" height="300" rx="18" fill="#f8fbfd" stroke="#cbd8e1" stroke-width="2" opacity="1"/><circle cx="660" cy="285" r="36" fill="#f4c95d" opacity="1"/><text x="660" y="285" font-family="Arial,Helvetica,sans-serif" font-size="16" font-weight="800" fill="#0a2540" text-anchor="middle" dominant-baseline="middle">Sonne</text><circle cx="735" cy="285" r="10" fill="#ef5b5b" opacity="1"/><ellipse cx="660" cy="285" rx="75" ry="75" fill="none" stroke="#cbd8e1" stroke-width="2" opacity="1"/><circle cx="780" cy="285" r="10" fill="#7257d5" opacity="1"/><ellipse cx="660" cy="285" rx="120" ry="120" fill="none" stroke="#cbd8e1" stroke-width="2" opacity="1"/><text x="660" y="470" font-family="Arial,Helvetica,sans-serif" font-size="22" font-weight="850" fill="#0a2540" text-anchor="middle" dominant-baseline="middle">heliozentrisch</text>
</svg>