<svg xmlns="http://www.w3.org/2000/svg" viewBox="0 0 1200 620" role="img" aria-label="Elektronen-Atomrumpf-Modell">
<defs>
  <linearGradient id="bg" x1="0" y1="0" x2="1" y2="1"><stop offset="0" stop-color="#f7fbff"/><stop offset="1" stop-color="#eef7f4"/></linearGradient>
  <filter id="shadow" x="-20%" y="-20%" width="140%" height="140%"><feDropShadow dx="0" dy="8" stdDeviation="8" flood-color="#0f172a" flood-opacity="0.18"/></filter>
  <marker id="arrow" markerWidth="14" markerHeight="14" refX="10" refY="5" orient="auto" markerUnits="strokeWidth"><path d="M0,0 L10,5 L0,10 Z" fill="#f5b301"/></marker>
  <marker id="arrowB" markerWidth="14" markerHeight="14" refX="10" refY="5" orient="auto" markerUnits="strokeWidth"><path d="M0,0 L10,5 L0,10 Z" fill="#0f69b5"/></marker>
</defs>
<rect width="1200" height="620" rx="34" fill="url(#bg)"/>
<rect x="35" y="30" width="1130" height="74" rx="22" fill="#0f69b5" opacity="0.96"/>
<text x="65" y="78" font-family="Arial, Helvetica, sans-serif" font-size="36" font-weight="700" fill="white">Elektronen-Atomrumpf-Modell</text>

<g filter="url(#shadow)"><rect x="85" y="145" width="1030" height="390" rx="28" fill="white"/></g>
<circle cx="170" cy="240" r="24" fill="#cbd5e1" stroke="#475569" stroke-width="4"/><circle cx="170" cy="335" r="24" fill="#cbd5e1" stroke="#475569" stroke-width="4"/><circle cx="170" cy="430" r="24" fill="#cbd5e1" stroke="#475569" stroke-width="4"/><circle cx="290" cy="240" r="24" fill="#cbd5e1" stroke="#475569" stroke-width="4"/><circle cx="290" cy="335" r="24" fill="#cbd5e1" stroke="#475569" stroke-width="4"/><circle cx="290" cy="430" r="24" fill="#cbd5e1" stroke="#475569" stroke-width="4"/><circle cx="410" cy="240" r="24" fill="#cbd5e1" stroke="#475569" stroke-width="4"/><circle cx="410" cy="335" r="24" fill="#cbd5e1" stroke="#475569" stroke-width="4"/><circle cx="410" cy="430" r="24" fill="#cbd5e1" stroke="#475569" stroke-width="4"/><circle cx="530" cy="240" r="24" fill="#cbd5e1" stroke="#475569" stroke-width="4"/><circle cx="530" cy="335" r="24" fill="#cbd5e1" stroke="#475569" stroke-width="4"/><circle cx="530" cy="430" r="24" fill="#cbd5e1" stroke="#475569" stroke-width="4"/><circle cx="650" cy="240" r="24" fill="#cbd5e1" stroke="#475569" stroke-width="4"/><circle cx="650" cy="335" r="24" fill="#cbd5e1" stroke="#475569" stroke-width="4"/><circle cx="650" cy="430" r="24" fill="#cbd5e1" stroke="#475569" stroke-width="4"/><circle cx="770" cy="240" r="24" fill="#cbd5e1" stroke="#475569" stroke-width="4"/><circle cx="770" cy="335" r="24" fill="#cbd5e1" stroke="#475569" stroke-width="4"/><circle cx="770" cy="430" r="24" fill="#cbd5e1" stroke="#475569" stroke-width="4"/><circle cx="890" cy="240" r="24" fill="#cbd5e1" stroke="#475569" stroke-width="4"/><circle cx="890" cy="335" r="24" fill="#cbd5e1" stroke="#475569" stroke-width="4"/><circle cx="890" cy="430" r="24" fill="#cbd5e1" stroke="#475569" stroke-width="4"/><circle cx="1010" cy="240" r="24" fill="#cbd5e1" stroke="#475569" stroke-width="4"/><circle cx="1010" cy="335" r="24" fill="#cbd5e1" stroke="#475569" stroke-width="4"/><circle cx="1010" cy="430" r="24" fill="#cbd5e1" stroke="#475569" stroke-width="4"/>
<circle cx="210" cy="210" r="13" fill="#2563eb"/><circle cx="340" cy="280" r="13" fill="#2563eb"/><circle cx="470" cy="350" r="13" fill="#2563eb"/><circle cx="600" cy="210" r="13" fill="#2563eb"/><circle cx="730" cy="280" r="13" fill="#2563eb"/><circle cx="860" cy="350" r="13" fill="#2563eb"/><circle cx="990" cy="210" r="13" fill="#2563eb"/>
<line x1="170" y1="500" x2="1030" y2="500" stroke="#0f69b5" stroke-width="12" marker-end="url(#arrowB)"/>
<text x="170" y="550" font-family="Arial" font-size="25" fill="#334155">Frei bewegliche Elektronen driften im Metallgitter. Stromstärke beschreibt Ladung pro Zeit.</text>

</svg>