<svg xmlns="http://www.w3.org/2000/svg" viewBox="0 0 1200 620" role="img" aria-label="Elektrische Leistung, Energie und Kosten">
<defs>
  <linearGradient id="bg" x1="0" y1="0" x2="1" y2="1"><stop offset="0" stop-color="#f7fbff"/><stop offset="1" stop-color="#eef7f4"/></linearGradient>
  <filter id="shadow" x="-20%" y="-20%" width="140%" height="140%"><feDropShadow dx="0" dy="8" stdDeviation="8" flood-color="#0f172a" flood-opacity="0.18"/></filter>
  <marker id="arrow" markerWidth="14" markerHeight="14" refX="10" refY="5" orient="auto" markerUnits="strokeWidth"><path d="M0,0 L10,5 L0,10 Z" fill="#f5b301"/></marker>
  <marker id="arrowB" markerWidth="14" markerHeight="14" refX="10" refY="5" orient="auto" markerUnits="strokeWidth"><path d="M0,0 L10,5 L0,10 Z" fill="#0f69b5"/></marker>
</defs>
<rect width="1200" height="620" rx="34" fill="url(#bg)"/>
<rect x="35" y="30" width="1130" height="74" rx="22" fill="#0f69b5" opacity="0.96"/>
<text x="65" y="78" font-family="Arial, Helvetica, sans-serif" font-size="36" font-weight="700" fill="white">Elektrische Leistung, Energie und Kosten</text>

<g filter="url(#shadow)"><rect x="85" y="145" width="1030" height="390" rx="28" fill="white"/></g>
<circle cx="245" cy="320" r="95" fill="#e0f2fe" stroke="#0f172a" stroke-width="8"/><path d="M245 320 L245 250" stroke="#0f172a" stroke-width="8"/><path d="M245 320 L310 340" stroke="#0f172a" stroke-width="8"/><text x="185" y="445" font-family="Arial" font-size="24">Stromzähler</text>
<rect x="480" y="255" width="90" height="170" rx="12" fill="#fde68a" stroke="#92400e" stroke-width="6"/><rect x="615" y="310" width="110" height="115" rx="12" fill="#bfdbfe" stroke="#1e3a8a" stroke-width="6"/><rect x="770" y="210" width="120" height="215" rx="12" fill="#d1fae5" stroke="#065f46" stroke-width="6"/>
<rect x="965" y="405" width="50" height="20" fill="#f59e0b"/><rect x="965" y="345" width="50" height="80" fill="#60a5fa"/><rect x="965" y="260" width="50" height="165" fill="#ef4444"/>
<text x="440" y="500" font-family="Arial" font-size="24" fill="#334155">E = P · t. Kleine Leistung kann bei langer Nutzung teuer werden.</text>

</svg>