<svg xmlns="http://www.w3.org/2000/svg" width="900" height="520" viewBox="0 0 900 520" role="img" aria-labelledby="title desc">
<title id="title">Forschungsmission Weltall</title><desc id="desc">Klare schulische Physikgrafik: Forschungsmission Weltall</desc>
<defs>
 <marker id="arrow" markerWidth="8" markerHeight="8" refX="7" refY="4" orient="auto" markerUnits="strokeWidth"><path d="M0,0 L8,4 L0,8 z" fill="context-stroke"/></marker>
 <filter id="shadow" x="-20%" y="-20%" width="140%" height="140%"><feDropShadow dx="0" dy="8" stdDeviation="8" flood-color="#102a43" flood-opacity=".12"/></filter>
 <linearGradient id="rainbow" x1="0" x2="1"><stop offset="0" stop-color="#6d28d9"/><stop offset=".18" stop-color="#2563eb"/><stop offset=".35" stop-color="#0ea5e9"/><stop offset=".52" stop-color="#22c55e"/><stop offset=".68" stop-color="#facc15"/><stop offset=".83" stop-color="#f97316"/><stop offset="1" stop-color="#ef4444"/></linearGradient>
 <radialGradient id="sun"><stop offset="0" stop-color="#fff7a8"/><stop offset=".7" stop-color="#ffd34e"/><stop offset="1" stop-color="#f39a24"/></radialGradient>
</defs>
<rect width="900" height="520" rx="28" fill="#f3f6ff"/>
<rect x="18" y="18" width="864" height="484" rx="24" fill="white" stroke="#7257d5" stroke-width="3" opacity=".98"/>
<rect x="42" y="38" width="816" height="58" rx="18" fill="#f0eeff" opacity="1"/><text x="66" y="68" font-family="Arial,Helvetica,sans-serif" font-size="30" font-weight="800" fill="#0a2540" text-anchor="start" dominant-baseline="middle">Forschungsmission Weltall</text><line x1="42" y1="112" x2="858" y2="112" stroke="#7257d5" stroke-width="4" stroke-linecap="round" opacity="1"/><rect x="80" y="135" width="360" height="140" rx="18" fill="#f8fbfd" stroke="#cbd8e1" stroke-width="2" opacity="1"/><polygon points="105,175.0 175,195.0 170,225.0 100,215.0" fill="#cfd8e3" stroke="#0a2540" stroke-width="3" stroke-linejoin="round" opacity="1"/><line x1="160" y1="223.0" x2="195" y2="270.0" stroke="#0a2540" stroke-width="5" stroke-linecap="round" opacity="1"/><circle cx="190" cy="200.0" r="14" fill="#2f80ed" opacity="1"/><text x="225" y="205.0" font-family="Arial,Helvetica,sans-serif" font-size="21" font-weight="750" fill="#1f2a36" text-anchor="start" dominant-baseline="middle">Teleskop</text><rect x="470" y="135" width="360" height="140" rx="18" fill="#f8fbfd" stroke="#cbd8e1" stroke-width="2" opacity="1"/><rect x="480" y="177.0" width="120" height="56" rx="8" fill="url(#rainbow)" stroke="#0a2540" stroke-width="2" opacity="1"/><text x="615" y="205.0" font-family="Arial,Helvetica,sans-serif" font-size="21" font-weight="750" fill="#1f2a36" text-anchor="start" dominant-baseline="middle">Spektrum</text><rect x="80" y="297" width="360" height="140" rx="18" fill="#f8fbfd" stroke="#cbd8e1" stroke-width="2" opacity="1"/><circle cx="150" cy="367.0" r="38" fill="#2f80ed" opacity="1"/><ellipse cx="150" cy="367.0" rx="68" ry="22" fill="none" stroke="#f4c95d" stroke-width="5" opacity="1"/><text x="225" y="367.0" font-family="Arial,Helvetica,sans-serif" font-size="21" font-weight="750" fill="#1f2a36" text-anchor="start" dominant-baseline="middle">Planet</text><rect x="470" y="297" width="360" height="140" rx="18" fill="#f8fbfd" stroke="#cbd8e1" stroke-width="2" opacity="1"/><rect x="512" y="345.0" width="56" height="44" rx="8" fill="#d8e0e8" stroke="#0a2540" stroke-width="3" opacity="1"/><rect x="452" y="353.0" width="50" height="28" rx="4" fill="#2f80ed" stroke="#0a2540" stroke-width="2" opacity="1"/><rect x="578" y="353.0" width="50" height="28" rx="4" fill="#2f80ed" stroke="#0a2540" stroke-width="2" opacity="1"/><line x1="540" y1="389.0" x2="540" y2="429.0" stroke="#0a2540" stroke-width="4" stroke-linecap="round" opacity="1"/><text x="615" y="367.0" font-family="Arial,Helvetica,sans-serif" font-size="21" font-weight="750" fill="#1f2a36" text-anchor="start" dominant-baseline="middle">Raumsonde</text>
</svg>