<svg xmlns="http://www.w3.org/2000/svg" width="900" height="520" viewBox="0 0 900 520" role="img" aria-labelledby="title desc">
<title id="title">Mondphasen</title><desc id="desc">Klare schulische Physikgrafik: Mondphasen</desc>
<defs>
 <marker id="arrow" markerWidth="8" markerHeight="8" refX="7" refY="4" orient="auto" markerUnits="strokeWidth"><path d="M0,0 L8,4 L0,8 z" fill="context-stroke"/></marker>
 <filter id="shadow" x="-20%" y="-20%" width="140%" height="140%"><feDropShadow dx="0" dy="8" stdDeviation="8" flood-color="#102a43" flood-opacity=".12"/></filter>
 <linearGradient id="rainbow" x1="0" x2="1"><stop offset="0" stop-color="#6d28d9"/><stop offset=".18" stop-color="#2563eb"/><stop offset=".35" stop-color="#0ea5e9"/><stop offset=".52" stop-color="#22c55e"/><stop offset=".68" stop-color="#facc15"/><stop offset=".83" stop-color="#f97316"/><stop offset="1" stop-color="#ef4444"/></linearGradient>
 <radialGradient id="sun"><stop offset="0" stop-color="#fff7a8"/><stop offset=".7" stop-color="#ffd34e"/><stop offset="1" stop-color="#f39a24"/></radialGradient>
</defs>
<rect width="900" height="520" rx="28" fill="#f3f6ff"/>
<rect x="18" y="18" width="864" height="484" rx="24" fill="white" stroke="#7257d5" stroke-width="3" opacity=".98"/>
<rect x="42" y="38" width="816" height="58" rx="18" fill="#f0eeff" opacity="1"/><text x="66" y="68" font-family="Arial,Helvetica,sans-serif" font-size="30" font-weight="800" fill="#0a2540" text-anchor="start" dominant-baseline="middle">Mondphasen im Überblick</text><line x1="42" y1="112" x2="858" y2="112" stroke="#7257d5" stroke-width="4" stroke-linecap="round" opacity="1"/><circle cx="450" cy="290" r="46" fill="#2f80ed" opacity="1"/><text x="450" y="290" font-family="Arial,Helvetica,sans-serif" font-size="18" font-weight="800" fill="#ffffff" text-anchor="middle" dominant-baseline="middle">Erde</text><circle cx="450.0" cy="140.0" r="33" fill="#d8d8d8" stroke="#0a2540" stroke-width="2" opacity="1"/><circle cx="458.0" cy="140.0" r="33" fill="#0b1630" opacity="1"/><text x="450.0" y="195.0" font-family="Arial,Helvetica,sans-serif" font-size="17" font-weight="700" fill="#0a2540" text-anchor="middle" dominant-baseline="middle">Neumond</text><circle cx="670.0" cy="290.0" r="33" fill="#d8d8d8" stroke="#0a2540" stroke-width="2" opacity="1"/><path d="M 670.0 257.0 A 33 33 0 0 0 670.0 323.0 A 18 33 0 0 1 670.0 257.0" fill="#0b1630" opacity="1"/><text x="670.0" y="345.0" font-family="Arial,Helvetica,sans-serif" font-size="17" font-weight="700" fill="#0a2540" text-anchor="middle" dominant-baseline="middle">zunehmend</text><circle cx="450.0" cy="440.0" r="33" fill="#d8d8d8" stroke="#0a2540" stroke-width="2" opacity="1"/><text x="450.0" y="495.0" font-family="Arial,Helvetica,sans-serif" font-size="17" font-weight="700" fill="#0a2540" text-anchor="middle" dominant-baseline="middle">Vollmond</text><circle cx="230.0" cy="290.0" r="33" fill="#d8d8d8" stroke="#0a2540" stroke-width="2" opacity="1"/><path d="M 230.0 257.0 A 33 33 0 0 1 230.0 323.0 A 18 33 0 0 0 230.0 257.0" fill="#0b1630" opacity="1"/><text x="230.0" y="345.0" font-family="Arial,Helvetica,sans-serif" font-size="17" font-weight="700" fill="#0a2540" text-anchor="middle" dominant-baseline="middle">abnehmend</text><line x1="70" y1="290" x2="220" y2="290" stroke="#f4c95d" stroke-width="8" stroke-linecap="round" marker-end="url(#arrow)" opacity="1"/><text x="110" y="250" font-family="Arial,Helvetica,sans-serif" font-size="18" font-weight="700" fill="#f59e42" text-anchor="middle" dominant-baseline="middle">Sonnenlicht</text>
</svg>