<svg xmlns="http://www.w3.org/2000/svg" width="900" height="520" viewBox="0 0 900 520" role="img" aria-labelledby="title desc">
<title id="title">Mondphasen und Mondfinsternis</title><desc id="desc">Klare schulische Physikgrafik: Mondphasen und Mondfinsternis</desc>
<defs>
 <marker id="arrow" markerWidth="8" markerHeight="8" refX="7" refY="4" orient="auto" markerUnits="strokeWidth"><path d="M0,0 L8,4 L0,8 z" fill="context-stroke"/></marker>
 <filter id="shadow" x="-20%" y="-20%" width="140%" height="140%"><feDropShadow dx="0" dy="8" stdDeviation="8" flood-color="#102a43" flood-opacity=".12"/></filter>
 <linearGradient id="rainbow" x1="0" x2="1"><stop offset="0" stop-color="#6d28d9"/><stop offset=".18" stop-color="#2563eb"/><stop offset=".35" stop-color="#0ea5e9"/><stop offset=".52" stop-color="#22c55e"/><stop offset=".68" stop-color="#facc15"/><stop offset=".83" stop-color="#f97316"/><stop offset="1" stop-color="#ef4444"/></linearGradient>
 <radialGradient id="sun"><stop offset="0" stop-color="#fff7a8"/><stop offset=".7" stop-color="#ffd34e"/><stop offset="1" stop-color="#f39a24"/></radialGradient>
</defs>
<rect width="900" height="520" rx="28" fill="#f3f6ff"/>
<rect x="18" y="18" width="864" height="484" rx="24" fill="white" stroke="#7257d5" stroke-width="3" opacity=".98"/>
<rect x="42" y="38" width="816" height="58" rx="18" fill="#f0eeff" opacity="1"/><text x="66" y="68" font-family="Arial,Helvetica,sans-serif" font-size="30" font-weight="800" fill="#0a2540" text-anchor="start" dominant-baseline="middle">Mondphase oder Finsternis?</text><line x1="42" y1="112" x2="858" y2="112" stroke="#7257d5" stroke-width="4" stroke-linecap="round" opacity="1"/><rect x="55" y="150" width="370" height="285" rx="18" fill="#f8fbfd" stroke="#cbd8e1" stroke-width="2" opacity="1"/><circle cx="125" cy="285" r="42" fill="url(#sun)" opacity="1"/><circle cx="265" cy="285" r="28" fill="#2f80ed" opacity="1"/><circle cx="365" cy="285" r="20" fill="#d8d8d8" opacity="1"/><line x1="175" y1="285" x2="345" y2="285" stroke="#f4c95d" stroke-width="4" stroke-linecap="round" marker-end="url(#arrow)" opacity="1"/><text x="240" y="460" font-family="Arial,Helvetica,sans-serif" font-size="22" font-weight="850" fill="#0a2540" text-anchor="middle" dominant-baseline="middle">Mondphase</text><rect x="475" y="150" width="370" height="285" rx="18" fill="#f8fbfd" stroke="#cbd8e1" stroke-width="2" opacity="1"/><circle cx="545" cy="285" r="42" fill="url(#sun)" opacity="1"/><circle cx="685" cy="285" r="28" fill="#2f80ed" opacity="1"/><circle cx="785" cy="285" r="20" fill="#d8d8d8" opacity="1"/><polygon points="713,260 830,245 830,325 713,310" fill="#4b5563" opacity="0.55"/><text x="660" y="460" font-family="Arial,Helvetica,sans-serif" font-size="22" font-weight="850" fill="#0a2540" text-anchor="middle" dominant-baseline="middle">Mondfinsternis</text>
</svg>