<svg xmlns="http://www.w3.org/2000/svg" width="900" height="520" viewBox="0 0 900 520" role="img" aria-labelledby="title desc">
<title id="title">Bewegungen im Alltag</title><desc id="desc">Klare schulische Physikgrafik: Bewegungen im Alltag</desc>
<defs>
 <marker id="arrow" markerWidth="8" markerHeight="8" refX="7" refY="4" orient="auto" markerUnits="strokeWidth"><path d="M0,0 L8,4 L0,8 z" fill="context-stroke"/></marker>
 <filter id="shadow" x="-20%" y="-20%" width="140%" height="140%"><feDropShadow dx="0" dy="8" stdDeviation="8" flood-color="#102a43" flood-opacity=".12"/></filter>
 <linearGradient id="rainbow" x1="0" x2="1"><stop offset="0" stop-color="#6d28d9"/><stop offset=".18" stop-color="#2563eb"/><stop offset=".35" stop-color="#0ea5e9"/><stop offset=".52" stop-color="#22c55e"/><stop offset=".68" stop-color="#facc15"/><stop offset=".83" stop-color="#f97316"/><stop offset="1" stop-color="#ef4444"/></linearGradient>
 <radialGradient id="sun"><stop offset="0" stop-color="#fff7a8"/><stop offset=".7" stop-color="#ffd34e"/><stop offset="1" stop-color="#f39a24"/></radialGradient>
</defs>
<rect width="900" height="520" rx="28" fill="#f8fbfa"/>
<rect x="18" y="18" width="864" height="484" rx="24" fill="white" stroke="#f59e42" stroke-width="3" opacity=".98"/>
<rect x="42" y="38" width="816" height="58" rx="18" fill="#fff4e8" opacity="1"/><text x="66" y="68" font-family="Arial,Helvetica,sans-serif" font-size="30" font-weight="800" fill="#0a2540" text-anchor="start" dominant-baseline="middle">Bewegungen im Alltag</text><line x1="42" y1="112" x2="858" y2="112" stroke="#f59e42" stroke-width="4" stroke-linecap="round" opacity="1"/><rect x="80" y="135" width="360" height="140" rx="18" fill="#f8fbfd" stroke="#cbd8e1" stroke-width="2" opacity="1"/><circle cx="115" cy="230.0" r="22" fill="white" stroke="#0a2540" stroke-width="4" opacity="1"/><circle cx="185" cy="230.0" r="22" fill="white" stroke="#0a2540" stroke-width="4" opacity="1"/><line x1="115" y1="230.0" x2="150" y2="200.0" stroke="#f59e42" stroke-width="5" stroke-linecap="round" opacity="1"/><line x1="150" y1="200.0" x2="185" y2="230.0" stroke="#f59e42" stroke-width="5" stroke-linecap="round" opacity="1"/><line x1="115" y1="230.0" x2="170" y2="230.0" stroke="#f59e42" stroke-width="5" stroke-linecap="round" opacity="1"/><text x="225" y="205.0" font-family="Arial,Helvetica,sans-serif" font-size="21" font-weight="750" fill="#1f2a36" text-anchor="start" dominant-baseline="middle">Fahrrad</text><rect x="470" y="135" width="360" height="140" rx="18" fill="#f8fbfd" stroke="#cbd8e1" stroke-width="2" opacity="1"/><circle cx="540" cy="205.0" r="35" fill="#f59e42" stroke="#0a2540" stroke-width="3" opacity="1"/><path d="M 510 205.0 Q 540 187.0 570 205.0" fill="none" stroke="#0a2540" stroke-width="3" stroke-linecap="round" stroke-linejoin="round" opacity="1"/><text x="615" y="205.0" font-family="Arial,Helvetica,sans-serif" font-size="21" font-weight="750" fill="#1f2a36" text-anchor="start" dominant-baseline="middle">Ball</text><rect x="80" y="297" width="360" height="140" rx="18" fill="#f8fbfd" stroke="#cbd8e1" stroke-width="2" opacity="1"/><rect x="90" y="339.0" width="120" height="56" rx="12" fill="#dfe8ef" stroke="#0a2540" stroke-width="3" opacity="1"/><rect x="112" y="353.0" width="28" height="20" rx="4" fill="#2f80ed" opacity="1"/><rect x="158" y="353.0" width="28" height="20" rx="4" fill="#2f80ed" opacity="1"/><circle cx="115" cy="402.0" r="10" fill="#0a2540" opacity="1"/><circle cx="185" cy="402.0" r="10" fill="#0a2540" opacity="1"/><text x="225" y="367.0" font-family="Arial,Helvetica,sans-serif" font-size="21" font-weight="750" fill="#1f2a36" text-anchor="start" dominant-baseline="middle">Zug</text><rect x="470" y="297" width="360" height="140" rx="18" fill="#f8fbfd" stroke="#cbd8e1" stroke-width="2" opacity="1"/><line x1="485" y1="407.0" x2="485" y2="322.0" stroke="#0a2540" stroke-width="3" stroke-linecap="round" opacity="1"/><line x1="485" y1="407.0" x2="605" y2="407.0" stroke="#0a2540" stroke-width="3" stroke-linecap="round" opacity="1"/><path d="M 495 397.0 C 530 387.0 545 347.0 595 332.0" fill="none" stroke="#f59e42" stroke-width="5" stroke-linecap="round" stroke-linejoin="round" opacity="1"/><text x="615" y="367.0" font-family="Arial,Helvetica,sans-serif" font-size="21" font-weight="750" fill="#1f2a36" text-anchor="start" dominant-baseline="middle">Diagramm</text>
</svg>