<svg xmlns="http://www.w3.org/2000/svg" viewBox="0 0 1200 620" role="img" aria-label="Reihen- und Parallelschaltung">
<defs>
  <linearGradient id="bg" x1="0" y1="0" x2="1" y2="1"><stop offset="0" stop-color="#f7fbff"/><stop offset="1" stop-color="#eef7f4"/></linearGradient>
  <filter id="shadow" x="-20%" y="-20%" width="140%" height="140%"><feDropShadow dx="0" dy="8" stdDeviation="8" flood-color="#0f172a" flood-opacity="0.18"/></filter>
  <marker id="arrow" markerWidth="14" markerHeight="14" refX="10" refY="5" orient="auto" markerUnits="strokeWidth"><path d="M0,0 L10,5 L0,10 Z" fill="#f5b301"/></marker>
  <marker id="arrowB" markerWidth="14" markerHeight="14" refX="10" refY="5" orient="auto" markerUnits="strokeWidth"><path d="M0,0 L10,5 L0,10 Z" fill="#0f69b5"/></marker>
</defs>
<rect width="1200" height="620" rx="34" fill="url(#bg)"/>
<rect x="35" y="30" width="1130" height="74" rx="22" fill="#0f69b5" opacity="0.96"/>
<text x="65" y="78" font-family="Arial, Helvetica, sans-serif" font-size="36" font-weight="700" fill="white">Reihen- und Parallelschaltung</text>

<g filter="url(#shadow)"><rect x="65" y="145" width="520" height="395" rx="28" fill="white"/><rect x="615" y="145" width="520" height="395" rx="28" fill="white"/></g>
<text x="105" y="205" font-family="Arial" font-size="28" font-weight="700" fill="#0f172a">Reihe</text>
<rect x="120" y="320" width="90" height="55" rx="10" fill="#f59e0b" stroke="#92400e" stroke-width="5"/><circle cx="300" cy="345" r="35" fill="#fde68a" stroke="#f59e0b" stroke-width="6"/><circle cx="430" cy="345" r="35" fill="#fde68a" stroke="#f59e0b" stroke-width="6"/>
<path d="M210 345 H265 M335 345 H395 M465 345 H530 V460 H120 V375" fill="none" stroke="#334155" stroke-width="9"/>
<text x="665" y="205" font-family="Arial" font-size="28" font-weight="700" fill="#0f172a">Parallel</text>
<rect x="670" y="320" width="90" height="55" rx="10" fill="#f59e0b" stroke="#92400e" stroke-width="5"/>
<path d="M760 345 H830 M830 265 H1010 M830 425 H1010 M1010 265 V425 M1010 345 H1075 V480 H670 V375" fill="none" stroke="#334155" stroke-width="9"/>
<circle cx="925" cy="265" r="32" fill="#fde68a" stroke="#f59e0b" stroke-width="6"/><circle cx="925" cy="425" r="32" fill="#fde68a" stroke="#f59e0b" stroke-width="6"/>
<text x="120" y="505" font-family="Arial" font-size="23" fill="#334155">Vergleiche Helligkeit, Stromstärke und Spannung an Messpunkten.</text>

</svg>