<svg xmlns="http://www.w3.org/2000/svg" width="900" height="520" viewBox="0 0 900 520" role="img" aria-labelledby="title desc">
<title id="title">RGB Pixel</title><desc id="desc">Klare schulische Physikgrafik: RGB Pixel</desc>
<defs>
 <marker id="arrow" markerWidth="8" markerHeight="8" refX="7" refY="4" orient="auto" markerUnits="strokeWidth"><path d="M0,0 L8,4 L0,8 z" fill="context-stroke"/></marker>
 <filter id="shadow" x="-20%" y="-20%" width="140%" height="140%"><feDropShadow dx="0" dy="8" stdDeviation="8" flood-color="#102a43" flood-opacity=".12"/></filter>
 <linearGradient id="rainbow" x1="0" x2="1"><stop offset="0" stop-color="#6d28d9"/><stop offset=".18" stop-color="#2563eb"/><stop offset=".35" stop-color="#0ea5e9"/><stop offset=".52" stop-color="#22c55e"/><stop offset=".68" stop-color="#facc15"/><stop offset=".83" stop-color="#f97316"/><stop offset="1" stop-color="#ef4444"/></linearGradient>
 <radialGradient id="sun"><stop offset="0" stop-color="#fff7a8"/><stop offset=".7" stop-color="#ffd34e"/><stop offset="1" stop-color="#f39a24"/></radialGradient>
</defs>
<rect width="900" height="520" rx="28" fill="#f7fbfd"/>
<rect x="18" y="18" width="864" height="484" rx="24" fill="white" stroke="#22c7d6" stroke-width="3" opacity=".98"/>
<rect x="42" y="38" width="816" height="58" rx="18" fill="#eef7fa" opacity="1"/><text x="66" y="68" font-family="Arial,Helvetica,sans-serif" font-size="30" font-weight="800" fill="#0a2540" text-anchor="start" dominant-baseline="middle">Bildschirmpixel unter der Lupe</text><line x1="42" y1="112" x2="858" y2="112" stroke="#22c7d6" stroke-width="4" stroke-linecap="round" opacity="1"/><rect x="210" y="155" width="12" height="42" rx="2" fill="#ef4444" opacity="1"/><rect x="224" y="155" width="12" height="42" rx="2" fill="#22c55e" opacity="1"/><rect x="238" y="155" width="12" height="42" rx="2" fill="#2563eb" opacity="1"/><rect x="265" y="155" width="12" height="42" rx="2" fill="#ef4444" opacity="1"/><rect x="279" y="155" width="12" height="42" rx="2" fill="#22c55e" opacity="1"/><rect x="293" y="155" width="12" height="42" rx="2" fill="#2563eb" opacity="1"/><rect x="320" y="155" width="12" height="42" rx="2" fill="#ef4444" opacity="1"/><rect x="334" y="155" width="12" height="42" rx="2" fill="#22c55e" opacity="1"/><rect x="348" y="155" width="12" height="42" rx="2" fill="#2563eb" opacity="1"/><rect x="375" y="155" width="12" height="42" rx="2" fill="#ef4444" opacity="1"/><rect x="389" y="155" width="12" height="42" rx="2" fill="#22c55e" opacity="1"/><rect x="403" y="155" width="12" height="42" rx="2" fill="#2563eb" opacity="1"/><rect x="430" y="155" width="12" height="42" rx="2" fill="#ef4444" opacity="1"/><rect x="444" y="155" width="12" height="42" rx="2" fill="#22c55e" opacity="1"/><rect x="458" y="155" width="12" height="42" rx="2" fill="#2563eb" opacity="1"/><rect x="485" y="155" width="12" height="42" rx="2" fill="#ef4444" opacity="1"/><rect x="499" y="155" width="12" height="42" rx="2" fill="#22c55e" opacity="1"/><rect x="513" y="155" width="12" height="42" rx="2" fill="#2563eb" opacity="1"/><rect x="540" y="155" width="12" height="42" rx="2" fill="#ef4444" opacity="1"/><rect x="554" y="155" width="12" height="42" rx="2" fill="#22c55e" opacity="1"/><rect x="568" y="155" width="12" height="42" rx="2" fill="#2563eb" opacity="1"/><rect x="595" y="155" width="12" height="42" rx="2" fill="#ef4444" opacity="1"/><rect x="609" y="155" width="12" height="42" rx="2" fill="#22c55e" opacity="1"/><rect x="623" y="155" width="12" height="42" rx="2" fill="#2563eb" opacity="1"/><rect x="650" y="155" width="12" height="42" rx="2" fill="#ef4444" opacity="1"/><rect x="664" y="155" width="12" height="42" rx="2" fill="#22c55e" opacity="1"/><rect x="678" y="155" width="12" height="42" rx="2" fill="#2563eb" opacity="1"/><rect x="210" y="210" width="12" height="42" rx="2" fill="#ef4444" opacity="1"/><rect x="224" y="210" width="12" height="42" rx="2" fill="#22c55e" opacity="1"/><rect x="238" y="210" width="12" height="42" rx="2" fill="#2563eb" opacity="1"/><rect x="265" y="210" width="12" height="42" rx="2" fill="#ef4444" opacity="1"/><rect x="279" y="210" width="12" height="42" rx="2" fill="#22c55e" opacity="1"/><rect x="293" y="210" width="12" height="42" rx="2" fill="#2563eb" opacity="1"/><rect x="320" y="210" width="12" height="42" rx="2" fill="#ef4444" opacity="1"/><rect x="334" y="210" width="12" height="42" rx="2" fill="#22c55e" opacity="1"/><rect x="348" y="210" width="12" height="42" rx="2" fill="#2563eb" opacity="1"/><rect x="375" y="210" width="12" height="42" rx="2" fill="#ef4444" opacity="1"/><rect x="389" y="210" width="12" height="42" rx="2" fill="#22c55e" opacity="1"/><rect x="403" y="210" width="12" height="42" rx="2" fill="#2563eb" opacity="1"/><rect x="430" y="210" width="12" height="42" rx="2" fill="#ef4444" opacity="1"/><rect x="444" y="210" width="12" height="42" rx="2" fill="#22c55e" opacity="1"/><rect x="458" y="210" width="12" height="42" rx="2" fill="#2563eb" opacity="1"/><rect x="485" y="210" width="12" height="42" rx="2" fill="#ef4444" opacity="1"/><rect x="499" y="210" width="12" height="42" rx="2" fill="#22c55e" opacity="1"/><rect x="513" y="210" width="12" height="42" rx="2" fill="#2563eb" opacity="1"/><rect x="540" y="210" width="12" height="42" rx="2" fill="#ef4444" opacity="1"/><rect x="554" y="210" width="12" height="42" rx="2" fill="#22c55e" opacity="1"/><rect x="568" y="210" width="12" height="42" rx="2" fill="#2563eb" opacity="1"/><rect x="595" y="210" width="12" height="42" rx="2" fill="#ef4444" opacity="1"/><rect x="609" y="210" width="12" height="42" rx="2" fill="#22c55e" opacity="1"/><rect x="623" y="210" width="12" height="42" rx="2" fill="#2563eb" opacity="1"/><rect x="650" y="210" width="12" height="42" rx="2" fill="#ef4444" opacity="1"/><rect x="664" y="210" width="12" height="42" rx="2" fill="#22c55e" opacity="1"/><rect x="678" y="210" width="12" height="42" rx="2" fill="#2563eb" opacity="1"/><rect x="210" y="265" width="12" height="42" rx="2" fill="#ef4444" opacity="1"/><rect x="224" y="265" width="12" height="42" rx="2" fill="#22c55e" opacity="1"/><rect x="238" y="265" width="12" height="42" rx="2" fill="#2563eb" opacity="1"/><rect x="265" y="265" width="12" height="42" rx="2" fill="#ef4444" opacity="1"/><rect x="279" y="265" width="12" height="42" rx="2" fill="#22c55e" opacity="1"/><rect x="293" y="265" width="12" height="42" rx="2" fill="#2563eb" opacity="1"/><rect x="320" y="265" width="12" height="42" rx="2" fill="#ef4444" opacity="1"/><rect x="334" y="265" width="12" height="42" rx="2" fill="#22c55e" opacity="1"/><rect x="348" y="265" width="12" height="42" rx="2" fill="#2563eb" opacity="1"/><rect x="375" y="265" width="12" height="42" rx="2" fill="#ef4444" opacity="1"/><rect x="389" y="265" width="12" height="42" rx="2" fill="#22c55e" opacity="1"/><rect x="403" y="265" width="12" height="42" rx="2" fill="#2563eb" opacity="1"/><rect x="430" y="265" width="12" height="42" rx="2" fill="#ef4444" opacity="1"/><rect x="444" y="265" width="12" height="42" rx="2" fill="#22c55e" opacity="1"/><rect x="458" y="265" width="12" height="42" rx="2" fill="#2563eb" opacity="1"/><rect x="485" y="265" width="12" height="42" rx="2" fill="#ef4444" opacity="1"/><rect x="499" y="265" width="12" height="42" rx="2" fill="#22c55e" opacity="1"/><rect x="513" y="265" width="12" height="42" rx="2" fill="#2563eb" opacity="1"/><rect x="540" y="265" width="12" height="42" rx="2" fill="#ef4444" opacity="1"/><rect x="554" y="265" width="12" height="42" rx="2" fill="#22c55e" opacity="1"/><rect x="568" y="265" width="12" height="42" rx="2" fill="#2563eb" opacity="1"/><rect x="595" y="265" width="12" height="42" rx="2" fill="#ef4444" opacity="1"/><rect x="609" y="265" width="12" height="42" rx="2" fill="#22c55e" opacity="1"/><rect x="623" y="265" width="12" height="42" rx="2" fill="#2563eb" opacity="1"/><rect x="650" y="265" width="12" height="42" rx="2" fill="#ef4444" opacity="1"/><rect x="664" y="265" width="12" height="42" rx="2" fill="#22c55e" opacity="1"/><rect x="678" y="265" width="12" height="42" rx="2" fill="#2563eb" opacity="1"/><rect x="210" y="320" width="12" height="42" rx="2" fill="#ef4444" opacity="1"/><rect x="224" y="320" width="12" height="42" rx="2" fill="#22c55e" opacity="1"/><rect x="238" y="320" width="12" height="42" rx="2" fill="#2563eb" opacity="1"/><rect x="265" y="320" width="12" height="42" rx="2" fill="#ef4444" opacity="1"/><rect x="279" y="320" width="12" height="42" rx="2" fill="#22c55e" opacity="1"/><rect x="293" y="320" width="12" height="42" rx="2" fill="#2563eb" opacity="1"/><rect x="320" y="320" width="12" height="42" rx="2" fill="#ef4444" opacity="1"/><rect x="334" y="320" width="12" height="42" rx="2" fill="#22c55e" opacity="1"/><rect x="348" y="320" width="12" height="42" rx="2" fill="#2563eb" opacity="1"/><rect x="375" y="320" width="12" height="42" rx="2" fill="#ef4444" opacity="1"/><rect x="389" y="320" width="12" height="42" rx="2" fill="#22c55e" opacity="1"/><rect x="403" y="320" width="12" height="42" rx="2" fill="#2563eb" opacity="1"/><rect x="430" y="320" width="12" height="42" rx="2" fill="#ef4444" opacity="1"/><rect x="444" y="320" width="12" height="42" rx="2" fill="#22c55e" opacity="1"/><rect x="458" y="320" width="12" height="42" rx="2" fill="#2563eb" opacity="1"/><rect x="485" y="320" width="12" height="42" rx="2" fill="#ef4444" opacity="1"/><rect x="499" y="320" width="12" height="42" rx="2" fill="#22c55e" opacity="1"/><rect x="513" y="320" width="12" height="42" rx="2" fill="#2563eb" opacity="1"/><rect x="540" y="320" width="12" height="42" rx="2" fill="#ef4444" opacity="1"/><rect x="554" y="320" width="12" height="42" rx="2" fill="#22c55e" opacity="1"/><rect x="568" y="320" width="12" height="42" rx="2" fill="#2563eb" opacity="1"/><rect x="595" y="320" width="12" height="42" rx="2" fill="#ef4444" opacity="1"/><rect x="609" y="320" width="12" height="42" rx="2" fill="#22c55e" opacity="1"/><rect x="623" y="320" width="12" height="42" rx="2" fill="#2563eb" opacity="1"/><rect x="650" y="320" width="12" height="42" rx="2" fill="#ef4444" opacity="1"/><rect x="664" y="320" width="12" height="42" rx="2" fill="#22c55e" opacity="1"/><rect x="678" y="320" width="12" height="42" rx="2" fill="#2563eb" opacity="1"/><rect x="210" y="375" width="12" height="42" rx="2" fill="#ef4444" opacity="1"/><rect x="224" y="375" width="12" height="42" rx="2" fill="#22c55e" opacity="1"/><rect x="238" y="375" width="12" height="42" rx="2" fill="#2563eb" opacity="1"/><rect x="265" y="375" width="12" height="42" rx="2" fill="#ef4444" opacity="1"/><rect x="279" y="375" width="12" height="42" rx="2" fill="#22c55e" opacity="1"/><rect x="293" y="375" width="12" height="42" rx="2" fill="#2563eb" opacity="1"/><rect x="320" y="375" width="12" height="42" rx="2" fill="#ef4444" opacity="1"/><rect x="334" y="375" width="12" height="42" rx="2" fill="#22c55e" opacity="1"/><rect x="348" y="375" width="12" height="42" rx="2" fill="#2563eb" opacity="1"/><rect x="375" y="375" width="12" height="42" rx="2" fill="#ef4444" opacity="1"/><rect x="389" y="375" width="12" height="42" rx="2" fill="#22c55e" opacity="1"/><rect x="403" y="375" width="12" height="42" rx="2" fill="#2563eb" opacity="1"/><rect x="430" y="375" width="12" height="42" rx="2" fill="#ef4444" opacity="1"/><rect x="444" y="375" width="12" height="42" rx="2" fill="#22c55e" opacity="1"/><rect x="458" y="375" width="12" height="42" rx="2" fill="#2563eb" opacity="1"/><rect x="485" y="375" width="12" height="42" rx="2" fill="#ef4444" opacity="1"/><rect x="499" y="375" width="12" height="42" rx="2" fill="#22c55e" opacity="1"/><rect x="513" y="375" width="12" height="42" rx="2" fill="#2563eb" opacity="1"/><rect x="540" y="375" width="12" height="42" rx="2" fill="#ef4444" opacity="1"/><rect x="554" y="375" width="12" height="42" rx="2" fill="#22c55e" opacity="1"/><rect x="568" y="375" width="12" height="42" rx="2" fill="#2563eb" opacity="1"/><rect x="595" y="375" width="12" height="42" rx="2" fill="#ef4444" opacity="1"/><rect x="609" y="375" width="12" height="42" rx="2" fill="#22c55e" opacity="1"/><rect x="623" y="375" width="12" height="42" rx="2" fill="#2563eb" opacity="1"/><rect x="650" y="375" width="12" height="42" rx="2" fill="#ef4444" opacity="1"/><rect x="664" y="375" width="12" height="42" rx="2" fill="#22c55e" opacity="1"/><rect x="678" y="375" width="12" height="42" rx="2" fill="#2563eb" opacity="1"/><circle cx="680" cy="340" r="105" fill="none" stroke="#0a2540" stroke-width="6" opacity="1"/><line x1="610" y1="415" x2="535" y2="475" stroke="#0a2540" stroke-width="14" stroke-linecap="round" opacity="1"/><text x="130" y="260" font-family="Arial,Helvetica,sans-serif" font-size="26" font-weight="900" fill="#0a2540" text-anchor="middle" dominant-baseline="middle">R  G  B</text>
</svg>